solid OpenSCAD_Model
  facet normal 0 0 -1
    outer loop
      vertex -35.5 0 0
      vertex -34.7242 7.38087 0
      vertex -34.7242 -7.38087 0
    endloop
  endfacet
  facet normal 0 0 -1
    outer loop
      vertex -34.7242 -7.38087 0
      vertex -34.7242 7.38087 0
      vertex -32.4309 14.4392 0
    endloop
  endfacet
  facet normal 0 0 -1
    outer loop
      vertex -34.7242 -7.38087 0
      vertex -32.4309 14.4392 0
      vertex -28.7201 20.8664 0
    endloop
  endfacet
  facet normal 0 0 -1
    outer loop
      vertex -34.7242 -7.38087 0
      vertex -28.7201 20.8664 0
      vertex -23.7541 26.3816 0
    endloop
  endfacet
  facet normal 0 0 -1
    outer loop
      vertex -34.7242 -7.38087 0
      vertex -23.7541 26.3816 0
      vertex -17.75 30.7439 0
    endloop
  endfacet
  facet normal 0 0 -1
    outer loop
      vertex -34.7242 -7.38087 0
      vertex -17.75 30.7439 0
      vertex -10.9701 33.7625 0
    endloop
  endfacet
  facet normal 0 0 -1
    outer loop
      vertex -34.7242 -7.38087 0
      vertex -10.9701 33.7625 0
      vertex -3.71076 35.3055 0
    endloop
  endfacet
  facet normal 0 0 -1
    outer loop
      vertex -34.7242 -7.38087 0
      vertex -3.71076 35.3055 0
      vertex 3.71076 35.3055 0
    endloop
  endfacet
  facet normal 0 0 -1
    outer loop
      vertex -34.7242 -7.38087 0
      vertex 3.71076 35.3055 0
      vertex 10.9701 33.7625 0
    endloop
  endfacet
  facet normal 0 0 -1
    outer loop
      vertex -34.7242 -7.38087 0
      vertex 10.9701 33.7625 0
      vertex 17.75 30.7439 0
    endloop
  endfacet
  facet normal 0 0 -1
    outer loop
      vertex -34.7242 -7.38087 0
      vertex 17.75 30.7439 0
      vertex 23.7541 26.3816 0
    endloop
  endfacet
  facet normal 0 0 -1
    outer loop
      vertex -34.7242 -7.38087 0
      vertex 23.7541 26.3816 0
      vertex 28.7201 20.8664 0
    endloop
  endfacet
  facet normal 0 0 -1
    outer loop
      vertex -34.7242 -7.38087 0
      vertex 28.7201 20.8664 0
      vertex 32.4309 14.4392 0
    endloop
  endfacet
  facet normal 0 0 -1
    outer loop
      vertex -34.7242 -7.38087 0
      vertex 32.4309 14.4392 0
      vertex 34.7242 7.38087 0
    endloop
  endfacet
  facet normal 0 0 -1
    outer loop
      vertex -34.7242 -7.38087 0
      vertex 34.7242 7.38087 0
      vertex 35.5 0 0
    endloop
  endfacet
  facet normal 0 0 -1
    outer loop
      vertex -34.7242 -7.38087 0
      vertex 35.5 0 0
      vertex 34.7242 -7.38087 0
    endloop
  endfacet
  facet normal 0 0 -1
    outer loop
      vertex -34.7242 -7.38087 0
      vertex 34.7242 -7.38087 0
      vertex 32.4309 -14.4392 0
    endloop
  endfacet
  facet normal 0 0 -1
    outer loop
      vertex -34.7242 -7.38087 0
      vertex 32.4309 -14.4392 0
      vertex 28.7201 -20.8664 0
    endloop
  endfacet
  facet normal 0 0 -1
    outer loop
      vertex -34.7242 -7.38087 0
      vertex 28.7201 -20.8664 0
      vertex 23.7541 -26.3816 0
    endloop
  endfacet
  facet normal 0 0 -1
    outer loop
      vertex -34.7242 -7.38087 0
      vertex 23.7541 -26.3816 0
      vertex 17.75 -30.7439 0
    endloop
  endfacet
  facet normal 0 0 -1
    outer loop
      vertex -34.7242 -7.38087 0
      vertex 17.75 -30.7439 0
      vertex 10.9701 -33.7625 0
    endloop
  endfacet
  facet normal 0 0 -1
    outer loop
      vertex -34.7242 -7.38087 0
      vertex 10.9701 -33.7625 0
      vertex 3.71076 -35.3055 0
    endloop
  endfacet
  facet normal 0 0 -1
    outer loop
      vertex -34.7242 -7.38087 0
      vertex 3.71076 -35.3055 0
      vertex -3.71076 -35.3055 0
    endloop
  endfacet
  facet normal 0 0 -1
    outer loop
      vertex -34.7242 -7.38087 0
      vertex -3.71076 -35.3055 0
      vertex -10.9701 -33.7625 0
    endloop
  endfacet
  facet normal 0 0 -1
    outer loop
      vertex -34.7242 -7.38087 0
      vertex -10.9701 -33.7625 0
      vertex -17.75 -30.7439 0
    endloop
  endfacet
  facet normal 0 0 -1
    outer loop
      vertex -34.7242 -7.38087 0
      vertex -17.75 -30.7439 0
      vertex -23.7541 -26.3816 0
    endloop
  endfacet
  facet normal 0 0 -1
    outer loop
      vertex -34.7242 -7.38087 0
      vertex -23.7541 -26.3816 0
      vertex -28.7201 -20.8664 0
    endloop
  endfacet
  facet normal 0 0 -1
    outer loop
      vertex -34.7242 -7.38087 0
      vertex -28.7201 -20.8664 0
      vertex -32.4309 -14.4392 0
    endloop
  endfacet
  facet normal -0.994522 0.104528 0
    outer loop
      vertex -35.5 0 0
      vertex -35.5 0 3
      vertex -34.7242 7.38087 0
    endloop
  endfacet
  facet normal -0.994522 0.104528 0
    outer loop
      vertex -34.7242 7.38087 0
      vertex -35.5 0 3
      vertex -34.7242 7.38087 3
    endloop
  endfacet
  facet normal -0.994522 -0.104528 0
    outer loop
      vertex -35.5 0 0
      vertex -34.7242 -7.38087 0
      vertex -35.5 0 3
    endloop
  endfacet
  facet normal -0.994522 -0.104528 0
    outer loop
      vertex -35.5 0 3
      vertex -34.7242 -7.38087 0
      vertex -34.7242 -7.38087 3
    endloop
  endfacet
  facet normal -0.951057 -0.309017 0
    outer loop
      vertex -34.7242 -7.38087 0
      vertex -32.4309 -14.4392 0
      vertex -34.7242 -7.38087 3
    endloop
  endfacet
  facet normal -0.951057 -0.309017 0
    outer loop
      vertex -32.4333 -14.4316 10
      vertex -32.4309 -14.4392 0
      vertex -32.4309 -14.4392 25
    endloop
  endfacet
  facet normal -0.951057 -0.309017 0
    outer loop
      vertex -34.7242 -7.38087 10
      vertex -32.4309 -14.4392 25
      vertex -34.7242 -7.38087 25
    endloop
  endfacet
  facet normal -0.951057 -0.309017 0
    outer loop
      vertex -32.4333 -14.4316 3
      vertex -32.4309 -14.4392 0
      vertex -32.4333 -14.4316 10
    endloop
  endfacet
  facet normal -0.951057 -0.309017 0
    outer loop
      vertex -34.7242 -7.38087 3
      vertex -32.4309 -14.4392 0
      vertex -32.4333 -14.4316 3
    endloop
  endfacet
  facet normal -0.951057 -0.309017 0
    outer loop
      vertex -32.4333 -14.4316 10
      vertex -32.4309 -14.4392 25
      vertex -34.7242 -7.38087 10
    endloop
  endfacet
  facet normal -0.866025 -0.5 0
    outer loop
      vertex -32.4309 -14.4392 0
      vertex -28.7201 -20.8664 0
      vertex -32.4309 -14.4392 25
    endloop
  endfacet
  facet normal -0.866025 -0.5 0
    outer loop
      vertex -32.1071 -15 25
      vertex -28.7201 -20.8664 0
      vertex -28.7201 -20.8664 70
    endloop
  endfacet
  facet normal -0.866025 -0.5 0
    outer loop
      vertex -32.4309 -14.4392 25
      vertex -28.7201 -20.8664 0
      vertex -32.1071 -15 25
    endloop
  endfacet
  facet normal -0.866025 -0.5 0
    outer loop
      vertex -32.1071 -15 25
      vertex -28.7201 -20.8664 70
      vertex -32.1071 -15 70
    endloop
  endfacet
  facet normal -0.743145 -0.669131 0
    outer loop
      vertex -28.7201 -20.8664 0
      vertex -23.7541 -26.3816 0
      vertex -28.7201 -20.8664 70
    endloop
  endfacet
  facet normal -0.743145 -0.669131 0
    outer loop
      vertex -28.7201 -20.8664 70
      vertex -23.7541 -26.3816 0
      vertex -23.7541 -26.3816 70
    endloop
  endfacet
  facet normal -0.587785 -0.809017 0
    outer loop
      vertex -23.7541 -26.3816 70
      vertex -23.7541 -26.3816 0
      vertex -17.75 -30.7439 0
    endloop
  endfacet
  facet normal -0.587785 -0.809017 0
    outer loop
      vertex -17.75 -30.7439 70
      vertex -23.7541 -26.3816 70
      vertex -17.75 -30.7439 0
    endloop
  endfacet
  facet normal -0.406737 -0.913545 0
    outer loop
      vertex -15 -31.9683 25
      vertex -17.75 -30.7439 0
      vertex -10.9701 -33.7625 0
    endloop
  endfacet
  facet normal -0.406737 -0.913545 0
    outer loop
      vertex -15 -31.9683 25
      vertex -15 -31.9683 70
      vertex -17.75 -30.7439 70
    endloop
  endfacet
  facet normal -0.406737 -0.913545 0
    outer loop
      vertex -17.75 -30.7439 70
      vertex -17.75 -30.7439 0
      vertex -15 -31.9683 25
    endloop
  endfacet
  facet normal -0.406737 -0.913545 0
    outer loop
      vertex -10.9701 -33.7625 25
      vertex -15 -31.9683 25
      vertex -10.9701 -33.7625 0
    endloop
  endfacet
  facet normal -0.207912 -0.978148 0
    outer loop
      vertex -10.9701 -33.7625 25
      vertex -10.9701 -33.7625 0
      vertex -3.71076 -35.3055 0
    endloop
  endfacet
  facet normal -0.207912 -0.978148 0
    outer loop
      vertex -3.71076 -35.3055 25
      vertex -10.9701 -33.7625 25
      vertex -3.71076 -35.3055 0
    endloop
  endfacet
  facet normal 0 -1 0
    outer loop
      vertex 0 -35.3055 3
      vertex -3.71076 -35.3055 0
      vertex 3.71076 -35.3055 0
    endloop
  endfacet
  facet normal 0 -1 0
    outer loop
      vertex -3.71076 -35.3055 25
      vertex -3.71076 -35.3055 0
      vertex 0 -35.3055 3
    endloop
  endfacet
  facet normal 0 -1 0
    outer loop
      vertex 0 -35.3055 10
      vertex 3.71076 -35.3055 10
      vertex -3.71076 -35.3055 25
    endloop
  endfacet
  facet normal 0 -1 0
    outer loop
      vertex -3.71076 -35.3055 25
      vertex 0 -35.3055 3
      vertex 0 -35.3055 10
    endloop
  endfacet
  facet normal 0 -1 0
    outer loop
      vertex 3.71076 -35.3055 25
      vertex -3.71076 -35.3055 25
      vertex 3.71076 -35.3055 10
    endloop
  endfacet
  facet normal 0 -1 0
    outer loop
      vertex 3.71076 -35.3055 3
      vertex 0 -35.3055 3
      vertex 3.71076 -35.3055 0
    endloop
  endfacet
  facet normal 0.207912 -0.978148 0
    outer loop
      vertex 3.71076 -35.3055 3
      vertex 3.71076 -35.3055 0
      vertex 10.9701 -33.7625 0
    endloop
  endfacet
  facet normal 0.207912 -0.978148 0
    outer loop
      vertex 10.9701 -33.7625 3
      vertex 3.71076 -35.3055 3
      vertex 10.9701 -33.7625 0
    endloop
  endfacet
  facet normal 0.406737 -0.913545 0
    outer loop
      vertex 10.9701 -33.7625 3
      vertex 10.9701 -33.7625 0
      vertex 17.75 -30.7439 0
    endloop
  endfacet
  facet normal 0.406737 -0.913545 0
    outer loop
      vertex 15 -31.9683 25
      vertex 10.9701 -33.7625 10
      vertex 12 -33.304 10
    endloop
  endfacet
  facet normal 0.406737 -0.913545 0
    outer loop
      vertex 12 -33.304 3
      vertex 10.9701 -33.7625 3
      vertex 17.75 -30.7439 0
    endloop
  endfacet
  facet normal 0.406737 -0.913545 0
    outer loop
      vertex 12 -33.304 10
      vertex 12 -33.304 3
      vertex 15 -31.9683 25
    endloop
  endfacet
  facet normal 0.406737 -0.913545 0
    outer loop
      vertex 17.75 -30.7439 70
      vertex 15 -31.9683 25
      vertex 17.75 -30.7439 0
    endloop
  endfacet
  facet normal 0.406737 -0.913545 0
    outer loop
      vertex 15 -31.9683 25
      vertex 12 -33.304 3
      vertex 17.75 -30.7439 0
    endloop
  endfacet
  facet normal 0.406737 -0.913545 0
    outer loop
      vertex 15 -31.9683 70
      vertex 15 -31.9683 25
      vertex 17.75 -30.7439 70
    endloop
  endfacet
  facet normal 0.406737 -0.913545 0
    outer loop
      vertex 15 -31.9683 25
      vertex 10.9701 -33.7625 25
      vertex 10.9701 -33.7625 10
    endloop
  endfacet
  facet normal 0.587785 -0.809017 0
    outer loop
      vertex 20 -29.1092 3
      vertex 17.75 -30.7439 0
      vertex 23.7541 -26.3816 0
    endloop
  endfacet
  facet normal 0.587785 -0.809017 0
    outer loop
      vertex 17.75 -30.7439 70
      vertex 17.75 -30.7439 0
      vertex 20 -29.1092 3
    endloop
  endfacet
  facet normal 0.587785 -0.809017 0
    outer loop
      vertex 20 -29.1092 10
      vertex 23.7541 -26.3816 10
      vertex 17.75 -30.7439 70
    endloop
  endfacet
  facet normal 0.587785 -0.809017 0
    outer loop
      vertex 17.75 -30.7439 70
      vertex 20 -29.1092 3
      vertex 20 -29.1092 10
    endloop
  endfacet
  facet normal 0.587785 -0.809017 0
    outer loop
      vertex 23.7541 -26.3816 70
      vertex 17.75 -30.7439 70
      vertex 23.7541 -26.3816 10
    endloop
  endfacet
  facet normal 0.587785 -0.809017 0
    outer loop
      vertex 23.7541 -26.3816 3
      vertex 20 -29.1092 3
      vertex 23.7541 -26.3816 0
    endloop
  endfacet
  facet normal 0.743145 -0.669131 0
    outer loop
      vertex 23.7541 -26.3816 3
      vertex 23.7541 -26.3816 0
      vertex 28.7201 -20.8664 0
    endloop
  endfacet
  facet normal 0.743145 -0.669131 0
    outer loop
      vertex 28.7201 -20.8664 3
      vertex 23.7541 -26.3816 3
      vertex 28.7201 -20.8664 0
    endloop
  endfacet
  facet normal 0.866025 -0.5 0
    outer loop
      vertex 28.7201 -20.8664 3
      vertex 28.7201 -20.8664 0
      vertex 32.4309 -14.4392 0
    endloop
  endfacet
  facet normal 0.866025 -0.5 0
    outer loop
      vertex 30 -18.6495 3
      vertex 28.7201 -20.8664 3
      vertex 32.4309 -14.4392 0
    endloop
  endfacet
  facet normal 0.866025 -0.5 0
    outer loop
      vertex 28.7201 -20.8664 70
      vertex 28.7201 -20.8664 10
      vertex 32.1071 -15 70
    endloop
  endfacet
  facet normal 0.866025 -0.5 0
    outer loop
      vertex 32.4309 -14.4392 25
      vertex 30 -18.6495 10
      vertex 32.4309 -14.4392 0
    endloop
  endfacet
  facet normal 0.866025 -0.5 0
    outer loop
      vertex 30 -18.6495 10
      vertex 30 -18.6495 3
      vertex 32.4309 -14.4392 0
    endloop
  endfacet
  facet normal 0.866025 -0.5 0
    outer loop
      vertex 28.7201 -20.8664 10
      vertex 32.1071 -15 25
      vertex 32.1071 -15 70
    endloop
  endfacet
  facet normal 0.866025 -0.5 0
    outer loop
      vertex 28.7201 -20.8664 10
      vertex 32.4309 -14.4392 25
      vertex 32.1071 -15 25
    endloop
  endfacet
  facet normal 0.866025 -0.5 0
    outer loop
      vertex 28.7201 -20.8664 10
      vertex 30 -18.6495 10
      vertex 32.4309 -14.4392 25
    endloop
  endfacet
  facet normal 0.951057 -0.309017 0
    outer loop
      vertex 33.8732 -10 3
      vertex 32.4309 -14.4392 0
      vertex 34.7242 -7.38087 0
    endloop
  endfacet
  facet normal 0.951057 -0.309017 0
    outer loop
      vertex 33.8732 -10 10
      vertex 34.7242 -7.38087 10
      vertex 32.4309 -14.4392 25
    endloop
  endfacet
  facet normal 0.951057 -0.309017 0
    outer loop
      vertex 32.4309 -14.4392 25
      vertex 32.4309 -14.4392 0
      vertex 33.8732 -10 3
    endloop
  endfacet
  facet normal 0.951057 -0.309017 0
    outer loop
      vertex 34.7242 -7.38087 25
      vertex 32.4309 -14.4392 25
      vertex 34.7242 -7.38087 10
    endloop
  endfacet
  facet normal 0.951057 -0.309017 0
    outer loop
      vertex 33.8732 -10 3
      vertex 33.8732 -10 10
      vertex 32.4309 -14.4392 25
    endloop
  endfacet
  facet normal 0.951057 -0.309017 0
    outer loop
      vertex 34.7242 -7.38087 3
      vertex 33.8732 -10 3
      vertex 34.7242 -7.38087 0
    endloop
  endfacet
  facet normal 0.994522 -0.104528 0
    outer loop
      vertex 34.7242 -7.38087 3
      vertex 34.7242 -7.38087 0
      vertex 35.5 0 0
    endloop
  endfacet
  facet normal 0.994522 -0.104528 0
    outer loop
      vertex 35.5 0 3
      vertex 34.7242 -7.38087 3
      vertex 35.5 0 0
    endloop
  endfacet
  facet normal 0.994522 0.104528 0
    outer loop
      vertex 35.5 0 0
      vertex 34.7242 7.38087 0
      vertex 34.7242 7.38087 3
    endloop
  endfacet
  facet normal 0.994522 0.104528 0
    outer loop
      vertex 35.5 0 3
      vertex 35.5 0 0
      vertex 34.7242 7.38087 3
    endloop
  endfacet
  facet normal 0.951057 0.309017 0
    outer loop
      vertex 33.8732 10 3
      vertex 32.4309 14.4392 0
      vertex 32.4309 14.4392 25
    endloop
  endfacet
  facet normal 0.951057 0.309017 0
    outer loop
      vertex 33.8732 10 3
      vertex 34.7242 7.38087 3
      vertex 34.7242 7.38087 0
    endloop
  endfacet
  facet normal 0.951057 0.309017 0
    outer loop
      vertex 34.7242 7.38087 25
      vertex 34.7242 7.38087 10
      vertex 32.4309 14.4392 25
    endloop
  endfacet
  facet normal 0.951057 0.309017 0
    outer loop
      vertex 34.7242 7.38087 10
      vertex 33.8732 10 10
      vertex 32.4309 14.4392 25
    endloop
  endfacet
  facet normal 0.951057 0.309017 0
    outer loop
      vertex 34.7242 7.38087 0
      vertex 32.4309 14.4392 0
      vertex 33.8732 10 3
    endloop
  endfacet
  facet normal 0.951057 0.309017 0
    outer loop
      vertex 33.8732 10 10
      vertex 33.8732 10 3
      vertex 32.4309 14.4392 25
    endloop
  endfacet
  facet normal 0.866025 0.5 0
    outer loop
      vertex 32.4309 14.4392 0
      vertex 28.7201 20.8664 0
      vertex 28.7201 20.8664 3
    endloop
  endfacet
  facet normal 0.866025 0.5 0
    outer loop
      vertex 30 18.6495 10
      vertex 32.4309 14.4392 0
      vertex 30 18.6495 3
    endloop
  endfacet
  facet normal 0.866025 0.5 0
    outer loop
      vertex 30 18.6495 3
      vertex 32.4309 14.4392 0
      vertex 28.7201 20.8664 3
    endloop
  endfacet
  facet normal 0.866025 0.5 0
    outer loop
      vertex 28.7201 20.8664 70
      vertex 32.4309 14.4392 0
      vertex 30 18.6495 10
    endloop
  endfacet
  facet normal 0.866025 0.5 0
    outer loop
      vertex 28.7201 20.8664 70
      vertex 30 18.6495 10
      vertex 28.7201 20.8664 10
    endloop
  endfacet
  facet normal 0.866025 0.5 0
    outer loop
      vertex 32.1071 15 25
      vertex 32.4309 14.4392 0
      vertex 28.7201 20.8664 70
    endloop
  endfacet
  facet normal 0.866025 0.5 0
    outer loop
      vertex 32.1071 15 70
      vertex 32.1071 15 25
      vertex 28.7201 20.8664 70
    endloop
  endfacet
  facet normal 0.866025 0.5 0
    outer loop
      vertex 32.1071 15 25
      vertex 32.4309 14.4392 25
      vertex 32.4309 14.4392 0
    endloop
  endfacet
  facet normal 0.743145 0.669131 0
    outer loop
      vertex 28.7201 20.8664 0
      vertex 23.7541 26.3816 0
      vertex 23.7541 26.3816 3
    endloop
  endfacet
  facet normal 0.743145 0.669131 0
    outer loop
      vertex 28.7201 20.8664 3
      vertex 28.7201 20.8664 0
      vertex 23.7541 26.3816 3
    endloop
  endfacet
  facet normal 0.587785 0.809017 0
    outer loop
      vertex 23.7541 26.3816 3
      vertex 23.7541 26.3816 0
      vertex 20 29.1092 3
    endloop
  endfacet
  facet normal 0.587785 0.809017 0
    outer loop
      vertex 23.7541 26.3816 10
      vertex 17.75 30.7439 70
      vertex 23.7541 26.3816 70
    endloop
  endfacet
  facet normal 0.587785 0.809017 0
    outer loop
      vertex 17.75 30.7439 0
      vertex 17.75 30.7439 70
      vertex 20 29.1092 10
    endloop
  endfacet
  facet normal 0.587785 0.809017 0
    outer loop
      vertex 17.75 30.7439 0
      vertex 20 29.1092 10
      vertex 20 29.1092 3
    endloop
  endfacet
  facet normal 0.587785 0.809017 0
    outer loop
      vertex 17.75 30.7439 0
      vertex 20 29.1092 3
      vertex 23.7541 26.3816 0
    endloop
  endfacet
  facet normal 0.587785 0.809017 0
    outer loop
      vertex 20 29.1092 10
      vertex 17.75 30.7439 70
      vertex 23.7541 26.3816 10
    endloop
  endfacet
  facet normal 0.406737 0.913545 0
    outer loop
      vertex 10.9701 33.7625 0
      vertex 10.9701 33.7625 3
      vertex 17.75 30.7439 0
    endloop
  endfacet
  facet normal 0.406737 0.913545 0
    outer loop
      vertex 17.75 30.7439 0
      vertex 10.9701 33.7625 3
      vertex 12 33.304 3
    endloop
  endfacet
  facet normal 0.406737 0.913545 0
    outer loop
      vertex 17.75 30.7439 0
      vertex 12 33.304 3
      vertex 12 33.304 10
    endloop
  endfacet
  facet normal 0.406737 0.913545 0
    outer loop
      vertex 12 33.304 10
      vertex 10.9701 33.7625 10
      vertex 10.9701 33.7625 25
    endloop
  endfacet
  facet normal 0.406737 0.913545 0
    outer loop
      vertex 12 33.304 10
      vertex 10.9701 33.7625 25
      vertex 17.75 30.7439 0
    endloop
  endfacet
  facet normal 0.406737 0.913545 0
    outer loop
      vertex 17.75 30.7439 0
      vertex 10.9701 33.7625 25
      vertex 15 31.9683 25
    endloop
  endfacet
  facet normal 0.406737 0.913545 0
    outer loop
      vertex 17.75 30.7439 0
      vertex 15 31.9683 25
      vertex 15 31.9683 70
    endloop
  endfacet
  facet normal 0.406737 0.913545 0
    outer loop
      vertex 17.75 30.7439 0
      vertex 15 31.9683 70
      vertex 17.75 30.7439 70
    endloop
  endfacet
  facet normal 0.207912 0.978148 0
    outer loop
      vertex 3.71076 35.3055 0
      vertex 3.71076 35.3055 3
      vertex 10.9701 33.7625 0
    endloop
  endfacet
  facet normal 0.207912 0.978148 0
    outer loop
      vertex 10.9701 33.7625 0
      vertex 3.71076 35.3055 3
      vertex 10.9701 33.7625 3
    endloop
  endfacet
  facet normal 0 1 0
    outer loop
      vertex 3.71076 35.3055 3
      vertex 3.71076 35.3055 0
      vertex 0 35.3055 3
    endloop
  endfacet
  facet normal 0 1 0
    outer loop
      vertex 3.71076 35.3055 10
      vertex -3.71076 35.3055 25
      vertex 3.71076 35.3055 25
    endloop
  endfacet
  facet normal 0 1 0
    outer loop
      vertex -3.71076 35.3055 0
      vertex -3.71076 35.3055 25
      vertex 0 35.3055 10
    endloop
  endfacet
  facet normal 0 1 0
    outer loop
      vertex -3.71076 35.3055 0
      vertex 0 35.3055 10
      vertex 0 35.3055 3
    endloop
  endfacet
  facet normal 0 1 0
    outer loop
      vertex -3.71076 35.3055 0
      vertex 0 35.3055 3
      vertex 3.71076 35.3055 0
    endloop
  endfacet
  facet normal 0 1 0
    outer loop
      vertex 0 35.3055 10
      vertex -3.71076 35.3055 25
      vertex 3.71076 35.3055 10
    endloop
  endfacet
  facet normal -0.207912 0.978148 0
    outer loop
      vertex -10.9701 33.7625 0
      vertex -10.9701 33.7625 25
      vertex -3.71076 35.3055 0
    endloop
  endfacet
  facet normal -0.207912 0.978148 0
    outer loop
      vertex -3.71076 35.3055 0
      vertex -10.9701 33.7625 25
      vertex -3.71076 35.3055 25
    endloop
  endfacet
  facet normal -0.406737 0.913545 0
    outer loop
      vertex -10.9701 33.7625 25
      vertex -10.9701 33.7625 0
      vertex -15 31.9683 25
    endloop
  endfacet
  facet normal -0.406737 0.913545 0
    outer loop
      vertex -17.75 30.7439 0
      vertex -17.75 30.7439 70
      vertex -15 31.9683 25
    endloop
  endfacet
  facet normal -0.406737 0.913545 0
    outer loop
      vertex -17.75 30.7439 0
      vertex -15 31.9683 25
      vertex -10.9701 33.7625 0
    endloop
  endfacet
  facet normal -0.406737 0.913545 0
    outer loop
      vertex -15 31.9683 25
      vertex -17.75 30.7439 70
      vertex -15 31.9683 70
    endloop
  endfacet
  facet normal -0.587785 0.809017 0
    outer loop
      vertex -23.7541 26.3816 0
      vertex -23.7541 26.3816 70
      vertex -17.75 30.7439 0
    endloop
  endfacet
  facet normal -0.587785 0.809017 0
    outer loop
      vertex -17.75 30.7439 0
      vertex -23.7541 26.3816 70
      vertex -17.75 30.7439 70
    endloop
  endfacet
  facet normal -0.743145 0.669131 0
    outer loop
      vertex -28.7201 20.8664 0
      vertex -28.7201 20.8664 70
      vertex -23.7541 26.3816 0
    endloop
  endfacet
  facet normal -0.743145 0.669131 0
    outer loop
      vertex -23.7541 26.3816 0
      vertex -28.7201 20.8664 70
      vertex -23.7541 26.3816 70
    endloop
  endfacet
  facet normal -0.866025 0.5 0
    outer loop
      vertex -32.4309 14.4392 0
      vertex -32.4309 14.4392 25
      vertex -28.7201 20.8664 0
    endloop
  endfacet
  facet normal -0.866025 0.5 0
    outer loop
      vertex -28.7201 20.8664 0
      vertex -32.4309 14.4392 25
      vertex -32.1071 15 25
    endloop
  endfacet
  facet normal -0.866025 0.5 0
    outer loop
      vertex -28.7201 20.8664 0
      vertex -32.1071 15 25
      vertex -32.1071 15 70
    endloop
  endfacet
  facet normal -0.866025 0.5 0
    outer loop
      vertex -28.7201 20.8664 0
      vertex -32.1071 15 70
      vertex -28.7201 20.8664 70
    endloop
  endfacet
  facet normal -0.951057 0.309017 0
    outer loop
      vertex -34.7242 7.38087 0
      vertex -34.7242 7.38087 3
      vertex -32.4309 14.4392 0
    endloop
  endfacet
  facet normal -0.951057 0.309017 0
    outer loop
      vertex -32.4309 14.4392 0
      vertex -34.7242 7.38087 3
      vertex -33.5776 10.91 3
    endloop
  endfacet
  facet normal -0.951057 0.309017 0
    outer loop
      vertex -32.4309 14.4392 0
      vertex -33.5776 10.91 3
      vertex -33.5776 10.91 10
    endloop
  endfacet
  facet normal -0.951057 0.309017 0
    outer loop
      vertex -33.5776 10.91 10
      vertex -34.7242 7.38087 10
      vertex -34.7242 7.38087 25
    endloop
  endfacet
  facet normal -0.951057 0.309017 0
    outer loop
      vertex -33.5776 10.91 10
      vertex -34.7242 7.38087 25
      vertex -32.4309 14.4392 0
    endloop
  endfacet
  facet normal -0.951057 0.309017 0
    outer loop
      vertex -32.4309 14.4392 0
      vertex -34.7242 7.38087 25
      vertex -32.4309 14.4392 25
    endloop
  endfacet
  facet normal 0 0 1
    outer loop
      vertex -29.6902 -13.2189 3
      vertex -26.2931 -19.103 3
      vertex -29.6925 -13.212 3
    endloop
  endfacet
  facet normal 0 0 1
    outer loop
      vertex -34.7242 -7.38087 3
      vertex -32.4333 -14.4316 3
      vertex -29.6925 -13.212 3
    endloop
  endfacet
  facet normal 0 0 1
    outer loop
      vertex 0 -32.322 3
      vertex 10.9701 -33.7625 3
      vertex -34.7242 -7.38087 3
    endloop
  endfacet
  facet normal 0 0 1
    outer loop
      vertex -16.25 -28.1458 3
      vertex -34.7242 -7.38087 3
      vertex -29.6925 -13.212 3
    endloop
  endfacet
  facet normal 0 0 1
    outer loop
      vertex -26.2931 -19.103 3
      vertex -21.7467 -24.1522 3
      vertex -29.6925 -13.212 3
    endloop
  endfacet
  facet normal 0 0 1
    outer loop
      vertex -21.7467 -24.1522 3
      vertex -16.25 -28.1458 3
      vertex -29.6925 -13.212 3
    endloop
  endfacet
  facet normal 0 0 1
    outer loop
      vertex -16.25 -28.1458 3
      vertex -10.0431 -30.9093 3
      vertex -34.7242 -7.38087 3
    endloop
  endfacet
  facet normal 0 0 1
    outer loop
      vertex -10.0431 -30.9093 3
      vertex -3.39717 -32.322 3
      vertex -34.7242 -7.38087 3
    endloop
  endfacet
  facet normal 0 0 1
    outer loop
      vertex -3.39717 -32.322 3
      vertex 0 -32.322 3
      vertex -34.7242 -7.38087 3
    endloop
  endfacet
  facet normal 0 0 1
    outer loop
      vertex 12 -30.038 3
      vertex 16.25 -28.1458 3
      vertex -34.7242 -7.38087 3
    endloop
  endfacet
  facet normal 0 0 1
    outer loop
      vertex 0 -35.3055 3
      vertex 3.71076 -35.3055 3
      vertex 0 -32.322 3
    endloop
  endfacet
  facet normal 0 0 1
    outer loop
      vertex 3.71076 -35.3055 3
      vertex 10.9701 -33.7625 3
      vertex 0 -32.322 3
    endloop
  endfacet
  facet normal 0 0 1
    outer loop
      vertex 10.9701 -33.7625 3
      vertex 12 -33.304 3
      vertex -34.7242 -7.38087 3
    endloop
  endfacet
  facet normal 0 0 1
    outer loop
      vertex 12 -33.304 3
      vertex 12 -30.038 3
      vertex -34.7242 -7.38087 3
    endloop
  endfacet
  facet normal 0 0 1
    outer loop
      vertex 20 -25.4213 3
      vertex 23.7541 -26.3816 3
      vertex -34.7242 -7.38087 3
    endloop
  endfacet
  facet normal 0 0 1
    outer loop
      vertex 30 -12.2656 3
      vertex 30.7361 -10 3
      vertex -34.7242 -7.38087 3
    endloop
  endfacet
  facet normal 0 0 1
    outer loop
      vertex 16.25 -28.1458 3
      vertex 20 -25.4213 3
      vertex -34.7242 -7.38087 3
    endloop
  endfacet
  facet normal 0 0 1
    outer loop
      vertex 20 -29.1092 3
      vertex 23.7541 -26.3816 3
      vertex 20 -25.4213 3
    endloop
  endfacet
  facet normal 0 0 1
    outer loop
      vertex 23.7541 -26.3816 3
      vertex 28.7201 -20.8664 3
      vertex -34.7242 -7.38087 3
    endloop
  endfacet
  facet normal 0 0 1
    outer loop
      vertex 28.7201 -20.8664 3
      vertex 30 -18.6495 3
      vertex -34.7242 -7.38087 3
    endloop
  endfacet
  facet normal 0 0 1
    outer loop
      vertex 30 -18.6495 3
      vertex 30 -12.2656 3
      vertex -34.7242 -7.38087 3
    endloop
  endfacet
  facet normal 0 0 1
    outer loop
      vertex 30.7361 -10 3
      vertex 33.8732 -10 3
      vertex -34.7242 -7.38087 3
    endloop
  endfacet
  facet normal 0 0 1
    outer loop
      vertex 30.7361 10 3
      vertex 30 12.2656 3
      vertex -34.7242 -7.38087 3
    endloop
  endfacet
  facet normal 0 0 1
    outer loop
      vertex 33.8732 -10 3
      vertex 34.7242 -7.38087 3
      vertex -34.7242 -7.38087 3
    endloop
  endfacet
  facet normal 0 0 1
    outer loop
      vertex 34.7242 -7.38087 3
      vertex 35.5 0 3
      vertex -34.7242 -7.38087 3
    endloop
  endfacet
  facet normal 0 0 1
    outer loop
      vertex 35.5 0 3
      vertex 34.7242 7.38087 3
      vertex -34.7242 -7.38087 3
    endloop
  endfacet
  facet normal 0 0 1
    outer loop
      vertex 34.7242 7.38087 3
      vertex 33.8732 10 3
      vertex -34.7242 -7.38087 3
    endloop
  endfacet
  facet normal 0 0 1
    outer loop
      vertex 33.8732 10 3
      vertex 30.7361 10 3
      vertex -34.7242 -7.38087 3
    endloop
  endfacet
  facet normal 0 0 1
    outer loop
      vertex 30 12.2656 3
      vertex 30 18.6495 3
      vertex -34.7242 -7.38087 3
    endloop
  endfacet
  facet normal 0 0 1
    outer loop
      vertex 16.25 28.1458 3
      vertex 12 30.038 3
      vertex -34.7242 -7.38087 3
    endloop
  endfacet
  facet normal 0 0 1
    outer loop
      vertex 30 18.6495 3
      vertex 28.7201 20.8664 3
      vertex -34.7242 -7.38087 3
    endloop
  endfacet
  facet normal 0 0 1
    outer loop
      vertex 28.7201 20.8664 3
      vertex 23.7541 26.3816 3
      vertex -34.7242 -7.38087 3
    endloop
  endfacet
  facet normal 0 0 1
    outer loop
      vertex 0 32.322 3
      vertex -3.39717 32.322 3
      vertex -34.7242 -7.38087 3
    endloop
  endfacet
  facet normal 0 0 1
    outer loop
      vertex 23.7541 26.3816 3
      vertex 20 25.4213 3
      vertex -34.7242 -7.38087 3
    endloop
  endfacet
  facet normal 0 0 1
    outer loop
      vertex 23.7541 26.3816 3
      vertex 20 29.1092 3
      vertex 20 25.4213 3
    endloop
  endfacet
  facet normal 0 0 1
    outer loop
      vertex 12 30.038 3
      vertex 12 33.304 3
      vertex -34.7242 -7.38087 3
    endloop
  endfacet
  facet normal 0 0 1
    outer loop
      vertex -3.39717 32.322 3
      vertex -10.0431 30.9093 3
      vertex -34.7242 -7.38087 3
    endloop
  endfacet
  facet normal 0 0 1
    outer loop
      vertex 12 33.304 3
      vertex 10.9701 33.7625 3
      vertex -34.7242 -7.38087 3
    endloop
  endfacet
  facet normal 0 0 1
    outer loop
      vertex 10.9701 33.7625 3
      vertex 3.71076 35.3055 3
      vertex -34.7242 -7.38087 3
    endloop
  endfacet
  facet normal 0 0 1
    outer loop
      vertex 3.71076 35.3055 3
      vertex 0 32.322 3
      vertex -34.7242 -7.38087 3
    endloop
  endfacet
  facet normal 0 0 1
    outer loop
      vertex 3.71076 35.3055 3
      vertex 0 35.3055 3
      vertex 0 32.322 3
    endloop
  endfacet
  facet normal 0 0 1
    outer loop
      vertex -30.74 9.98804 3
      vertex -33.5776 10.91 3
      vertex -34.7242 -7.38087 3
    endloop
  endfacet
  facet normal 0 0 1
    outer loop
      vertex -10.0431 30.9093 3
      vertex -16.25 28.1458 3
      vertex -34.7242 -7.38087 3
    endloop
  endfacet
  facet normal 0 0 1
    outer loop
      vertex -16.25 28.1458 3
      vertex -21.7467 24.1522 3
      vertex -34.7242 -7.38087 3
    endloop
  endfacet
  facet normal 0 0 1
    outer loop
      vertex -21.7467 24.1522 3
      vertex -26.2931 19.103 3
      vertex -34.7242 -7.38087 3
    endloop
  endfacet
  facet normal 0 0 1
    outer loop
      vertex -26.2931 19.103 3
      vertex -29.6902 13.2189 3
      vertex -34.7242 -7.38087 3
    endloop
  endfacet
  facet normal 0 0 1
    outer loop
      vertex -29.6902 13.2189 3
      vertex -30.74 9.98804 3
      vertex -34.7242 -7.38087 3
    endloop
  endfacet
  facet normal 0 0 1
    outer loop
      vertex -33.5776 10.91 3
      vertex -34.7242 7.38087 3
      vertex -34.7242 -7.38087 3
    endloop
  endfacet
  facet normal 0 0 1
    outer loop
      vertex -34.7242 7.38087 3
      vertex -35.5 0 3
      vertex -34.7242 -7.38087 3
    endloop
  endfacet
  facet normal 0 0 1
    outer loop
      vertex 20 25.4213 3
      vertex 16.25 28.1458 3
      vertex -34.7242 -7.38087 3
    endloop
  endfacet
  facet normal -0.406533 0.913636 0
    outer loop
      vertex -29.6925 -13.212 10
      vertex -29.6925 -13.212 3
      vertex -32.4333 -14.4316 10
    endloop
  endfacet
  facet normal -0.406533 0.913636 0
    outer loop
      vertex -32.4333 -14.4316 10
      vertex -29.6925 -13.212 3
      vertex -32.4333 -14.4316 3
    endloop
  endfacet
  facet normal 0 0 -1
    outer loop
      vertex -33.5776 10.91 10
      vertex -30.74 9.98804 10
      vertex -34.7242 7.38087 10
    endloop
  endfacet
  facet normal 0 0 -1
    outer loop
      vertex -34.7242 7.38087 10
      vertex -30.74 9.98804 10
      vertex -31.7898 6.75713 10
    endloop
  endfacet
  facet normal 0 0 -1
    outer loop
      vertex -34.7242 7.38087 10
      vertex -31.7898 6.75713 10
      vertex -32.5 0 10
    endloop
  endfacet
  facet normal 0 0 -1
    outer loop
      vertex -32.5 0 10
      vertex -31.7898 -6.75713 10
      vertex -34.7242 7.38087 10
    endloop
  endfacet
  facet normal 0 0 -1
    outer loop
      vertex -31.7898 -6.75713 10
      vertex -29.6925 -13.212 10
      vertex -32.4333 -14.4316 10
    endloop
  endfacet
  facet normal 0 0 -1
    outer loop
      vertex -31.7898 -6.75713 10
      vertex -32.4333 -14.4316 10
      vertex -34.7242 7.38087 10
    endloop
  endfacet
  facet normal 0 0 -1
    outer loop
      vertex -34.7242 7.38087 10
      vertex -32.4333 -14.4316 10
      vertex -34.7242 -7.38087 10
    endloop
  endfacet
  facet normal 0 0 -1
    outer loop
      vertex -34.7242 7.38087 10
      vertex -34.7242 -7.38087 10
      vertex -35.5 0 10
    endloop
  endfacet
  facet normal -0.994522 -0.104528 0
    outer loop
      vertex -35.5 0 10
      vertex -34.7242 -7.38087 10
      vertex -35.5 0 25
    endloop
  endfacet
  facet normal -0.994522 -0.104528 0
    outer loop
      vertex -35.5 0 25
      vertex -34.7242 -7.38087 10
      vertex -34.7242 -7.38087 25
    endloop
  endfacet
  facet normal 0 0 1
    outer loop
      vertex -34.7242 -7.38087 25
      vertex -32.4309 -14.4392 25
      vertex -32.1071 -15 25
    endloop
  endfacet
  facet normal 0 0 1
    outer loop
      vertex -29.6902 -13.2189 25
      vertex -34.7242 -7.38087 25
      vertex -28.6619 -15 25
    endloop
  endfacet
  facet normal 0 0 1
    outer loop
      vertex -28.6619 -15 25
      vertex -34.7242 -7.38087 25
      vertex -32.1071 -15 25
    endloop
  endfacet
  facet normal 0 0 1
    outer loop
      vertex -31.7898 -6.75713 25
      vertex -34.7242 -7.38087 25
      vertex -29.6902 -13.2189 25
    endloop
  endfacet
  facet normal 0 0 1
    outer loop
      vertex -32.5 0 25
      vertex -34.7242 -7.38087 25
      vertex -31.7898 -6.75713 25
    endloop
  endfacet
  facet normal 0 0 1
    outer loop
      vertex -31.7898 6.75713 25
      vertex -34.7242 -7.38087 25
      vertex -32.5 0 25
    endloop
  endfacet
  facet normal 0 0 1
    outer loop
      vertex -32.1071 15 25
      vertex -34.7242 -7.38087 25
      vertex -31.7898 6.75713 25
    endloop
  endfacet
  facet normal 0 0 1
    outer loop
      vertex -32.1071 15 25
      vertex -31.7898 6.75713 25
      vertex -29.6902 13.2189 25
    endloop
  endfacet
  facet normal 0 0 1
    outer loop
      vertex -32.1071 15 25
      vertex -29.6902 13.2189 25
      vertex -28.6619 15 25
    endloop
  endfacet
  facet normal 0 0 1
    outer loop
      vertex -32.4309 14.4392 25
      vertex -34.7242 -7.38087 25
      vertex -32.1071 15 25
    endloop
  endfacet
  facet normal 0 0 1
    outer loop
      vertex -34.7242 7.38087 25
      vertex -34.7242 -7.38087 25
      vertex -32.4309 14.4392 25
    endloop
  endfacet
  facet normal 0 0 1
    outer loop
      vertex -35.5 0 25
      vertex -34.7242 -7.38087 25
      vertex -34.7242 7.38087 25
    endloop
  endfacet
  facet normal 2.22045e-16 1 0
    outer loop
      vertex -28.6619 -15 70
      vertex -28.6619 -15 25
      vertex -32.1071 -15 70
    endloop
  endfacet
  facet normal 2.22045e-16 1 0
    outer loop
      vertex -32.1071 -15 70
      vertex -28.6619 -15 25
      vertex -32.1071 -15 25
    endloop
  endfacet
  facet normal 0 0 1
    outer loop
      vertex -28.6619 -15 70
      vertex -32.1071 -15 70
      vertex -28.7201 -20.8664 70
    endloop
  endfacet
  facet normal 0 0 1
    outer loop
      vertex -26.2931 -19.103 70
      vertex -28.6619 -15 70
      vertex -23.7541 -26.3816 70
    endloop
  endfacet
  facet normal 0 0 1
    outer loop
      vertex -23.7541 -26.3816 70
      vertex -28.6619 -15 70
      vertex -28.7201 -20.8664 70
    endloop
  endfacet
  facet normal 0 0 1
    outer loop
      vertex -21.7467 -24.1522 70
      vertex -26.2931 -19.103 70
      vertex -17.75 -30.7439 70
    endloop
  endfacet
  facet normal 0 0 1
    outer loop
      vertex -15 -28.7024 70
      vertex -16.25 -28.1458 70
      vertex -15 -31.9683 70
    endloop
  endfacet
  facet normal 0 0 1
    outer loop
      vertex -15 -31.9683 70
      vertex -21.7467 -24.1522 70
      vertex -17.75 -30.7439 70
    endloop
  endfacet
  facet normal 0 0 1
    outer loop
      vertex -17.75 -30.7439 70
      vertex -26.2931 -19.103 70
      vertex -23.7541 -26.3816 70
    endloop
  endfacet
  facet normal 0 0 1
    outer loop
      vertex -16.25 -28.1458 70
      vertex -21.7467 -24.1522 70
      vertex -15 -31.9683 70
    endloop
  endfacet
  facet normal 1 0 0
    outer loop
      vertex -15 -28.7024 25
      vertex -15 -28.7024 70
      vertex -15 -31.9683 70
    endloop
  endfacet
  facet normal 1 0 0
    outer loop
      vertex -15 -31.9683 25
      vertex -15 -28.7024 25
      vertex -15 -31.9683 70
    endloop
  endfacet
  facet normal 0 0 1
    outer loop
      vertex -10.9701 -33.7625 25
      vertex -3.71076 -35.3055 25
      vertex 3.71076 -35.3055 25
    endloop
  endfacet
  facet normal 0 0 1
    outer loop
      vertex 15 -31.9683 25
      vertex -10.9701 -33.7625 25
      vertex 10.9701 -33.7625 25
    endloop
  endfacet
  facet normal 0 0 1
    outer loop
      vertex 10.9701 -33.7625 25
      vertex -10.9701 -33.7625 25
      vertex 3.71076 -35.3055 25
    endloop
  endfacet
  facet normal 0 0 1
    outer loop
      vertex 3.39717 -32.322 25
      vertex -10.9701 -33.7625 25
      vertex 15 -31.9683 25
    endloop
  endfacet
  facet normal 0 0 1
    outer loop
      vertex 15 -28.7024 25
      vertex 10.0431 -30.9093 25
      vertex 15 -31.9683 25
    endloop
  endfacet
  facet normal 0 0 1
    outer loop
      vertex 10.0431 -30.9093 25
      vertex 3.39717 -32.322 25
      vertex 15 -31.9683 25
    endloop
  endfacet
  facet normal 0 0 1
    outer loop
      vertex -3.39717 -32.322 25
      vertex -10.0431 -30.9093 25
      vertex -10.9701 -33.7625 25
    endloop
  endfacet
  facet normal 0 0 1
    outer loop
      vertex -15 -28.7024 25
      vertex -10.9701 -33.7625 25
      vertex -10.0431 -30.9093 25
    endloop
  endfacet
  facet normal 0 0 1
    outer loop
      vertex -15 -31.9683 25
      vertex -10.9701 -33.7625 25
      vertex -15 -28.7024 25
    endloop
  endfacet
  facet normal 0 0 1
    outer loop
      vertex 3.39717 -32.322 25
      vertex -3.39717 -32.322 25
      vertex -10.9701 -33.7625 25
    endloop
  endfacet
  facet normal 0.207912 -0.978148 0
    outer loop
      vertex 3.71076 -35.3055 25
      vertex 3.71076 -35.3055 10
      vertex 10.9701 -33.7625 10
    endloop
  endfacet
  facet normal 0.207912 -0.978148 0
    outer loop
      vertex 10.9701 -33.7625 25
      vertex 3.71076 -35.3055 25
      vertex 10.9701 -33.7625 10
    endloop
  endfacet
  facet normal 0 0 -1
    outer loop
      vertex 12 -33.304 10
      vertex 10.0431 -30.9093 10
      vertex 12 -30.038 10
    endloop
  endfacet
  facet normal 0 0 -1
    outer loop
      vertex 3.39717 -32.322 10
      vertex 10.0431 -30.9093 10
      vertex 12 -33.304 10
    endloop
  endfacet
  facet normal 0 0 -1
    outer loop
      vertex 3.39717 -32.322 10
      vertex 12 -33.304 10
      vertex 0 -32.322 10
    endloop
  endfacet
  facet normal 0 0 -1
    outer loop
      vertex 12 -33.304 10
      vertex 10.9701 -33.7625 10
      vertex 0 -32.322 10
    endloop
  endfacet
  facet normal 0 0 -1
    outer loop
      vertex 10.9701 -33.7625 10
      vertex 3.71076 -35.3055 10
      vertex 0 -32.322 10
    endloop
  endfacet
  facet normal 0 0 -1
    outer loop
      vertex 3.71076 -35.3055 10
      vertex 0 -35.3055 10
      vertex 0 -32.322 10
    endloop
  endfacet
  facet normal 1 0 0
    outer loop
      vertex 0 -32.322 3
      vertex 0 -32.322 10
      vertex 0 -35.3055 10
    endloop
  endfacet
  facet normal 1 0 0
    outer loop
      vertex 0 -35.3055 3
      vertex 0 -32.322 3
      vertex 0 -35.3055 10
    endloop
  endfacet
  facet normal -1 0 0
    outer loop
      vertex 12 -30.038 10
      vertex 12 -30.038 3
      vertex 12 -33.304 10
    endloop
  endfacet
  facet normal -1 0 0
    outer loop
      vertex 12 -33.304 10
      vertex 12 -30.038 3
      vertex 12 -33.304 3
    endloop
  endfacet
  facet normal -1 0 0
    outer loop
      vertex 15 -28.7024 70
      vertex 15 -28.7024 25
      vertex 15 -31.9683 70
    endloop
  endfacet
  facet normal -1 0 0
    outer loop
      vertex 15 -31.9683 70
      vertex 15 -28.7024 25
      vertex 15 -31.9683 25
    endloop
  endfacet
  facet normal 0 0 1
    outer loop
      vertex 15 -28.7024 70
      vertex 15 -31.9683 70
      vertex 17.75 -30.7439 70
    endloop
  endfacet
  facet normal 0 0 1
    outer loop
      vertex 16.25 -28.1458 70
      vertex 15 -28.7024 70
      vertex 23.7541 -26.3816 70
    endloop
  endfacet
  facet normal 0 0 1
    outer loop
      vertex 23.7541 -26.3816 70
      vertex 15 -28.7024 70
      vertex 17.75 -30.7439 70
    endloop
  endfacet
  facet normal 0 0 1
    outer loop
      vertex 21.7467 -24.1522 70
      vertex 16.25 -28.1458 70
      vertex 28.7201 -20.8664 70
    endloop
  endfacet
  facet normal 0 0 1
    outer loop
      vertex 28.6619 -15 70
      vertex 26.2931 -19.103 70
      vertex 32.1071 -15 70
    endloop
  endfacet
  facet normal 0 0 1
    outer loop
      vertex 32.1071 -15 70
      vertex 21.7467 -24.1522 70
      vertex 28.7201 -20.8664 70
    endloop
  endfacet
  facet normal 0 0 1
    outer loop
      vertex 28.7201 -20.8664 70
      vertex 16.25 -28.1458 70
      vertex 23.7541 -26.3816 70
    endloop
  endfacet
  facet normal 0 0 1
    outer loop
      vertex 26.2931 -19.103 70
      vertex 21.7467 -24.1522 70
      vertex 32.1071 -15 70
    endloop
  endfacet
  facet normal 0.743145 -0.669131 0
    outer loop
      vertex 23.7541 -26.3816 70
      vertex 23.7541 -26.3816 10
      vertex 28.7201 -20.8664 10
    endloop
  endfacet
  facet normal 0.743145 -0.669131 0
    outer loop
      vertex 28.7201 -20.8664 70
      vertex 23.7541 -26.3816 70
      vertex 28.7201 -20.8664 10
    endloop
  endfacet
  facet normal 0 0 -1
    outer loop
      vertex 21.7467 -24.1522 10
      vertex 30 -18.6495 10
      vertex 20 -25.4213 10
    endloop
  endfacet
  facet normal 0 0 -1
    outer loop
      vertex 30 -18.6495 10
      vertex 26.2931 -19.103 10
      vertex 29.6902 -13.2189 10
    endloop
  endfacet
  facet normal 0 0 -1
    outer loop
      vertex 30 -18.6495 10
      vertex 29.6902 -13.2189 10
      vertex 30 -12.2656 10
    endloop
  endfacet
  facet normal 0 0 -1
    outer loop
      vertex 21.7467 -24.1522 10
      vertex 26.2931 -19.103 10
      vertex 30 -18.6495 10
    endloop
  endfacet
  facet normal 0 0 -1
    outer loop
      vertex 30 -18.6495 10
      vertex 28.7201 -20.8664 10
      vertex 20 -25.4213 10
    endloop
  endfacet
  facet normal 0 0 -1
    outer loop
      vertex 28.7201 -20.8664 10
      vertex 23.7541 -26.3816 10
      vertex 20 -25.4213 10
    endloop
  endfacet
  facet normal 0 0 -1
    outer loop
      vertex 23.7541 -26.3816 10
      vertex 20 -29.1092 10
      vertex 20 -25.4213 10
    endloop
  endfacet
  facet normal 1 0 0
    outer loop
      vertex 20 -25.4213 3
      vertex 20 -25.4213 10
      vertex 20 -29.1092 10
    endloop
  endfacet
  facet normal 1 0 0
    outer loop
      vertex 20 -29.1092 3
      vertex 20 -25.4213 3
      vertex 20 -29.1092 10
    endloop
  endfacet
  facet normal -1 0 0
    outer loop
      vertex 30 -12.2656 10
      vertex 30 -12.2656 3
      vertex 30 -18.6495 10
    endloop
  endfacet
  facet normal -1 0 0
    outer loop
      vertex 30 -18.6495 10
      vertex 30 -12.2656 3
      vertex 30 -18.6495 3
    endloop
  endfacet
  facet normal 2.22045e-16 1 0
    outer loop
      vertex 32.1071 -15 70
      vertex 32.1071 -15 25
      vertex 28.6619 -15 70
    endloop
  endfacet
  facet normal 2.22045e-16 1 0
    outer loop
      vertex 28.6619 -15 70
      vertex 32.1071 -15 25
      vertex 28.6619 -15 25
    endloop
  endfacet
  facet normal 0 0 1
    outer loop
      vertex 32.1071 -15 25
      vertex 32.4309 -14.4392 25
      vertex 34.7242 -7.38087 25
    endloop
  endfacet
  facet normal 0 0 1
    outer loop
      vertex 34.7242 7.38087 25
      vertex 32.1071 -15 25
      vertex 35.5 0 25
    endloop
  endfacet
  facet normal 0 0 1
    outer loop
      vertex 35.5 0 25
      vertex 32.1071 -15 25
      vertex 34.7242 -7.38087 25
    endloop
  endfacet
  facet normal 0 0 1
    outer loop
      vertex 32.5 0 25
      vertex 32.1071 -15 25
      vertex 34.7242 7.38087 25
    endloop
  endfacet
  facet normal 0 0 1
    outer loop
      vertex 32.5 0 25
      vertex 31.7898 -6.75713 25
      vertex 32.1071 -15 25
    endloop
  endfacet
  facet normal 0 0 1
    outer loop
      vertex 31.7898 -6.75713 25
      vertex 29.6902 -13.2189 25
      vertex 32.1071 -15 25
    endloop
  endfacet
  facet normal 0 0 1
    outer loop
      vertex 28.6619 15 25
      vertex 29.6902 13.2189 25
      vertex 32.1071 15 25
    endloop
  endfacet
  facet normal 0 0 1
    outer loop
      vertex 29.6902 13.2189 25
      vertex 31.7898 6.75713 25
      vertex 32.1071 15 25
    endloop
  endfacet
  facet normal 0 0 1
    outer loop
      vertex 32.4309 14.4392 25
      vertex 32.5 0 25
      vertex 34.7242 7.38087 25
    endloop
  endfacet
  facet normal 0 0 1
    outer loop
      vertex 28.6619 -15 25
      vertex 32.1071 -15 25
      vertex 29.6902 -13.2189 25
    endloop
  endfacet
  facet normal 0 0 1
    outer loop
      vertex 31.7898 6.75713 25
      vertex 32.4309 14.4392 25
      vertex 32.1071 15 25
    endloop
  endfacet
  facet normal 0 0 1
    outer loop
      vertex 31.7898 6.75713 25
      vertex 32.5 0 25
      vertex 32.4309 14.4392 25
    endloop
  endfacet
  facet normal 0.994522 -0.104528 0
    outer loop
      vertex 34.7242 -7.38087 25
      vertex 34.7242 -7.38087 10
      vertex 35.5 0 10
    endloop
  endfacet
  facet normal 0.994522 -0.104528 0
    outer loop
      vertex 35.5 0 25
      vertex 34.7242 -7.38087 25
      vertex 35.5 0 10
    endloop
  endfacet
  facet normal 0 0 -1
    outer loop
      vertex 33.8732 10 10
      vertex 31.7898 6.75713 10
      vertex 30.7361 10 10
    endloop
  endfacet
  facet normal 0 0 -1
    outer loop
      vertex 32.5 0 10
      vertex 31.7898 6.75713 10
      vertex 33.8732 10 10
    endloop
  endfacet
  facet normal 0 0 -1
    outer loop
      vertex 32.5 0 10
      vertex 33.8732 10 10
      vertex 31.7898 -6.75713 10
    endloop
  endfacet
  facet normal 0 0 -1
    outer loop
      vertex 33.8732 10 10
      vertex 34.7242 7.38087 10
      vertex 31.7898 -6.75713 10
    endloop
  endfacet
  facet normal 0 0 -1
    outer loop
      vertex 34.7242 7.38087 10
      vertex 35.5 0 10
      vertex 31.7898 -6.75713 10
    endloop
  endfacet
  facet normal 0 0 -1
    outer loop
      vertex 35.5 0 10
      vertex 34.7242 -7.38087 10
      vertex 31.7898 -6.75713 10
    endloop
  endfacet
  facet normal 0 0 -1
    outer loop
      vertex 34.7242 -7.38087 10
      vertex 33.8732 -10 10
      vertex 31.7898 -6.75713 10
    endloop
  endfacet
  facet normal 0 0 -1
    outer loop
      vertex 33.8732 -10 10
      vertex 30.7361 -10 10
      vertex 31.7898 -6.75713 10
    endloop
  endfacet
  facet normal 2.22045e-16 1 0
    outer loop
      vertex 33.8732 -10 10
      vertex 33.8732 -10 3
      vertex 30.7361 -10 10
    endloop
  endfacet
  facet normal 2.22045e-16 1 0
    outer loop
      vertex 30.7361 -10 10
      vertex 33.8732 -10 3
      vertex 30.7361 -10 3
    endloop
  endfacet
  facet normal -2.22045e-16 -1 0
    outer loop
      vertex 33.8732 10 3
      vertex 33.8732 10 10
      vertex 30.7361 10 10
    endloop
  endfacet
  facet normal -2.22045e-16 -1 0
    outer loop
      vertex 30.7361 10 3
      vertex 33.8732 10 3
      vertex 30.7361 10 10
    endloop
  endfacet
  facet normal 0.994522 0.104528 0
    outer loop
      vertex 35.5 0 10
      vertex 34.7242 7.38087 10
      vertex 34.7242 7.38087 25
    endloop
  endfacet
  facet normal 0.994522 0.104528 0
    outer loop
      vertex 35.5 0 25
      vertex 35.5 0 10
      vertex 34.7242 7.38087 25
    endloop
  endfacet
  facet normal -2.22045e-16 -1 0
    outer loop
      vertex 32.1071 15 25
      vertex 32.1071 15 70
      vertex 28.6619 15 70
    endloop
  endfacet
  facet normal -2.22045e-16 -1 0
    outer loop
      vertex 28.6619 15 25
      vertex 32.1071 15 25
      vertex 28.6619 15 70
    endloop
  endfacet
  facet normal 0 0 1
    outer loop
      vertex 26.2931 19.103 70
      vertex 32.1071 15 70
      vertex 15 31.9683 70
    endloop
  endfacet
  facet normal 0 0 1
    outer loop
      vertex 15 31.9683 70
      vertex 15 28.7024 70
      vertex 16.25 28.1458 70
    endloop
  endfacet
  facet normal 0 0 1
    outer loop
      vertex 21.7467 24.1522 70
      vertex 15 31.9683 70
      vertex 16.25 28.1458 70
    endloop
  endfacet
  facet normal 0 0 1
    outer loop
      vertex 21.7467 24.1522 70
      vertex 26.2931 19.103 70
      vertex 15 31.9683 70
    endloop
  endfacet
  facet normal 0 0 1
    outer loop
      vertex 28.6619 15 70
      vertex 32.1071 15 70
      vertex 26.2931 19.103 70
    endloop
  endfacet
  facet normal 0 0 1
    outer loop
      vertex 32.1071 15 70
      vertex 28.7201 20.8664 70
      vertex 15 31.9683 70
    endloop
  endfacet
  facet normal 0 0 1
    outer loop
      vertex 28.7201 20.8664 70
      vertex 23.7541 26.3816 70
      vertex 15 31.9683 70
    endloop
  endfacet
  facet normal 0 0 1
    outer loop
      vertex 23.7541 26.3816 70
      vertex 17.75 30.7439 70
      vertex 15 31.9683 70
    endloop
  endfacet
  facet normal 0.743145 0.669131 0
    outer loop
      vertex 28.7201 20.8664 10
      vertex 23.7541 26.3816 10
      vertex 23.7541 26.3816 70
    endloop
  endfacet
  facet normal 0.743145 0.669131 0
    outer loop
      vertex 28.7201 20.8664 70
      vertex 28.7201 20.8664 10
      vertex 23.7541 26.3816 70
    endloop
  endfacet
  facet normal 0 0 -1
    outer loop
      vertex 23.7541 26.3816 10
      vertex 28.7201 20.8664 10
      vertex 20 29.1092 10
    endloop
  endfacet
  facet normal 0 0 -1
    outer loop
      vertex 20 29.1092 10
      vertex 28.7201 20.8664 10
      vertex 30 18.6495 10
    endloop
  endfacet
  facet normal 0 0 -1
    outer loop
      vertex 29.6902 13.2189 10
      vertex 30 18.6495 10
      vertex 30 12.2656 10
    endloop
  endfacet
  facet normal 0 0 -1
    outer loop
      vertex 26.2931 19.103 10
      vertex 30 18.6495 10
      vertex 29.6902 13.2189 10
    endloop
  endfacet
  facet normal 0 0 -1
    outer loop
      vertex 20 29.1092 10
      vertex 30 18.6495 10
      vertex 26.2931 19.103 10
    endloop
  endfacet
  facet normal 0 0 -1
    outer loop
      vertex 20 29.1092 10
      vertex 21.7467 24.1522 10
      vertex 20 25.4213 10
    endloop
  endfacet
  facet normal 0 0 -1
    outer loop
      vertex 21.7467 24.1522 10
      vertex 20 29.1092 10
      vertex 26.2931 19.103 10
    endloop
  endfacet
  facet normal -1 0 0
    outer loop
      vertex 30 18.6495 10
      vertex 30 18.6495 3
      vertex 30 12.2656 10
    endloop
  endfacet
  facet normal -1 0 0
    outer loop
      vertex 30 12.2656 10
      vertex 30 18.6495 3
      vertex 30 12.2656 3
    endloop
  endfacet
  facet normal 1 0 0
    outer loop
      vertex 20 29.1092 3
      vertex 20 29.1092 10
      vertex 20 25.4213 10
    endloop
  endfacet
  facet normal 1 0 0
    outer loop
      vertex 20 25.4213 3
      vertex 20 29.1092 3
      vertex 20 25.4213 10
    endloop
  endfacet
  facet normal -1 0 0
    outer loop
      vertex 15 31.9683 70
      vertex 15 31.9683 25
      vertex 15 28.7024 70
    endloop
  endfacet
  facet normal -1 0 0
    outer loop
      vertex 15 28.7024 70
      vertex 15 31.9683 25
      vertex 15 28.7024 25
    endloop
  endfacet
  facet normal 0 0 1
    outer loop
      vertex 10.9701 33.7625 25
      vertex -3.39717 32.322 25
      vertex 3.39717 32.322 25
    endloop
  endfacet
  facet normal 0 0 1
    outer loop
      vertex 10.0431 30.9093 25
      vertex 15 31.9683 25
      vertex 3.39717 32.322 25
    endloop
  endfacet
  facet normal 0 0 1
    outer loop
      vertex -10.0431 30.9093 25
      vertex -3.39717 32.322 25
      vertex 3.71076 35.3055 25
    endloop
  endfacet
  facet normal 0 0 1
    outer loop
      vertex 15 28.7024 25
      vertex 15 31.9683 25
      vertex 10.0431 30.9093 25
    endloop
  endfacet
  facet normal 0 0 1
    outer loop
      vertex 15 31.9683 25
      vertex 10.9701 33.7625 25
      vertex 3.39717 32.322 25
    endloop
  endfacet
  facet normal 0 0 1
    outer loop
      vertex 10.9701 33.7625 25
      vertex 3.71076 35.3055 25
      vertex -3.39717 32.322 25
    endloop
  endfacet
  facet normal 0 0 1
    outer loop
      vertex 3.71076 35.3055 25
      vertex -3.71076 35.3055 25
      vertex -10.0431 30.9093 25
    endloop
  endfacet
  facet normal 0 0 1
    outer loop
      vertex -3.71076 35.3055 25
      vertex -10.9701 33.7625 25
      vertex -10.0431 30.9093 25
    endloop
  endfacet
  facet normal 0 0 1
    outer loop
      vertex -10.9701 33.7625 25
      vertex -15 31.9683 25
      vertex -10.0431 30.9093 25
    endloop
  endfacet
  facet normal 0 0 1
    outer loop
      vertex -15 31.9683 25
      vertex -15 28.7024 25
      vertex -10.0431 30.9093 25
    endloop
  endfacet
  facet normal 0.207912 0.978148 0
    outer loop
      vertex 3.71076 35.3055 10
      vertex 3.71076 35.3055 25
      vertex 10.9701 33.7625 10
    endloop
  endfacet
  facet normal 0.207912 0.978148 0
    outer loop
      vertex 10.9701 33.7625 10
      vertex 3.71076 35.3055 25
      vertex 10.9701 33.7625 25
    endloop
  endfacet
  facet normal 0 0 -1
    outer loop
      vertex 3.71076 35.3055 10
      vertex 10.9701 33.7625 10
      vertex 0 35.3055 10
    endloop
  endfacet
  facet normal 0 0 -1
    outer loop
      vertex 0 35.3055 10
      vertex 10.9701 33.7625 10
      vertex 12 33.304 10
    endloop
  endfacet
  facet normal 0 0 -1
    outer loop
      vertex 10.0431 30.9093 10
      vertex 12 33.304 10
      vertex 12 30.038 10
    endloop
  endfacet
  facet normal 0 0 -1
    outer loop
      vertex 0 35.3055 10
      vertex 12 33.304 10
      vertex 10.0431 30.9093 10
    endloop
  endfacet
  facet normal 0 0 -1
    outer loop
      vertex 0 35.3055 10
      vertex 3.39717 32.322 10
      vertex 0 32.322 10
    endloop
  endfacet
  facet normal 0 0 -1
    outer loop
      vertex 3.39717 32.322 10
      vertex 0 35.3055 10
      vertex 10.0431 30.9093 10
    endloop
  endfacet
  facet normal -1 0 0
    outer loop
      vertex 12 33.304 10
      vertex 12 33.304 3
      vertex 12 30.038 10
    endloop
  endfacet
  facet normal -1 0 0
    outer loop
      vertex 12 30.038 10
      vertex 12 33.304 3
      vertex 12 30.038 3
    endloop
  endfacet
  facet normal 1 0 0
    outer loop
      vertex 0 35.3055 3
      vertex 0 35.3055 10
      vertex 0 32.322 10
    endloop
  endfacet
  facet normal 1 0 0
    outer loop
      vertex 0 32.322 3
      vertex 0 35.3055 3
      vertex 0 32.322 10
    endloop
  endfacet
  facet normal 1 0 0
    outer loop
      vertex -15 31.9683 25
      vertex -15 31.9683 70
      vertex -15 28.7024 70
    endloop
  endfacet
  facet normal 1 0 0
    outer loop
      vertex -15 28.7024 25
      vertex -15 31.9683 25
      vertex -15 28.7024 70
    endloop
  endfacet
  facet normal 0 0 1
    outer loop
      vertex -28.7201 20.8664 70
      vertex -32.1071 15 70
      vertex -28.6619 15 70
    endloop
  endfacet
  facet normal 0 0 1
    outer loop
      vertex -21.7467 24.1522 70
      vertex -28.7201 20.8664 70
      vertex -26.2931 19.103 70
    endloop
  endfacet
  facet normal 0 0 1
    outer loop
      vertex -26.2931 19.103 70
      vertex -28.7201 20.8664 70
      vertex -28.6619 15 70
    endloop
  endfacet
  facet normal 0 0 1
    outer loop
      vertex -16.25 28.1458 70
      vertex -28.7201 20.8664 70
      vertex -21.7467 24.1522 70
    endloop
  endfacet
  facet normal 0 0 1
    outer loop
      vertex -15 31.9683 70
      vertex -28.7201 20.8664 70
      vertex -16.25 28.1458 70
    endloop
  endfacet
  facet normal 0 0 1
    outer loop
      vertex -15 31.9683 70
      vertex -16.25 28.1458 70
      vertex -15 28.7024 70
    endloop
  endfacet
  facet normal 0 0 1
    outer loop
      vertex -17.75 30.7439 70
      vertex -28.7201 20.8664 70
      vertex -15 31.9683 70
    endloop
  endfacet
  facet normal 0 0 1
    outer loop
      vertex -23.7541 26.3816 70
      vertex -28.7201 20.8664 70
      vertex -17.75 30.7439 70
    endloop
  endfacet
  facet normal -2.22045e-16 -1 0
    outer loop
      vertex -28.6619 15 25
      vertex -28.6619 15 70
      vertex -32.1071 15 70
    endloop
  endfacet
  facet normal -2.22045e-16 -1 0
    outer loop
      vertex -32.1071 15 25
      vertex -28.6619 15 25
      vertex -32.1071 15 70
    endloop
  endfacet
  facet normal -0.994522 0.104528 0
    outer loop
      vertex -35.5 0 10
      vertex -35.5 0 25
      vertex -34.7242 7.38087 10
    endloop
  endfacet
  facet normal -0.994522 0.104528 0
    outer loop
      vertex -34.7242 7.38087 10
      vertex -35.5 0 25
      vertex -34.7242 7.38087 25
    endloop
  endfacet
  facet normal -0.309017 -0.951057 0
    outer loop
      vertex -30.74 9.98804 3
      vertex -30.74 9.98804 10
      vertex -33.5776 10.91 10
    endloop
  endfacet
  facet normal -0.309017 -0.951057 0
    outer loop
      vertex -33.5776 10.91 3
      vertex -30.74 9.98804 3
      vertex -33.5776 10.91 10
    endloop
  endfacet
  facet normal 0.951057 -0.309017 0
    outer loop
      vertex -30.74 9.98804 10
      vertex -30.74 9.98804 3
      vertex -29.6902 13.2189 3
    endloop
  endfacet
  facet normal 0.951057 -0.309017 0
    outer loop
      vertex -31.7898 6.75713 25
      vertex -30.74 9.98804 10
      vertex -29.6902 13.2189 25
    endloop
  endfacet
  facet normal 0.951057 -0.309017 0
    outer loop
      vertex -29.6902 13.2189 25
      vertex -30.74 9.98804 10
      vertex -29.6902 13.2189 3
    endloop
  endfacet
  facet normal 0.951057 -0.309017 0
    outer loop
      vertex -31.7898 6.75713 10
      vertex -30.74 9.98804 10
      vertex -31.7898 6.75713 25
    endloop
  endfacet
  facet normal 0.866025 -0.5 0
    outer loop
      vertex -26.2931 19.103 3
      vertex -26.2931 19.103 70
      vertex -28.6619 15 70
    endloop
  endfacet
  facet normal 0.866025 -0.5 0
    outer loop
      vertex -29.6902 13.2189 25
      vertex -26.2931 19.103 3
      vertex -28.6619 15 25
    endloop
  endfacet
  facet normal 0.866025 -0.5 0
    outer loop
      vertex -28.6619 15 25
      vertex -26.2931 19.103 3
      vertex -28.6619 15 70
    endloop
  endfacet
  facet normal 0.866025 -0.5 0
    outer loop
      vertex -29.6902 13.2189 3
      vertex -26.2931 19.103 3
      vertex -29.6902 13.2189 25
    endloop
  endfacet
  facet normal 0.743145 -0.669131 0
    outer loop
      vertex -21.7467 24.1522 3
      vertex -21.7467 24.1522 70
      vertex -26.2931 19.103 70
    endloop
  endfacet
  facet normal 0.743145 -0.669131 0
    outer loop
      vertex -26.2931 19.103 3
      vertex -21.7467 24.1522 3
      vertex -26.2931 19.103 70
    endloop
  endfacet
  facet normal 0.587785 -0.809017 0
    outer loop
      vertex -16.25 28.1458 3
      vertex -16.25 28.1458 70
      vertex -21.7467 24.1522 70
    endloop
  endfacet
  facet normal 0.587785 -0.809017 0
    outer loop
      vertex -21.7467 24.1522 3
      vertex -16.25 28.1458 3
      vertex -21.7467 24.1522 70
    endloop
  endfacet
  facet normal 0.406737 -0.913545 0
    outer loop
      vertex -10.0431 30.9093 3
      vertex -10.0431 30.9093 25
      vertex -15 28.7024 25
    endloop
  endfacet
  facet normal 0.406737 -0.913545 0
    outer loop
      vertex -16.25 28.1458 3
      vertex -10.0431 30.9093 3
      vertex -15 28.7024 25
    endloop
  endfacet
  facet normal 0.406737 -0.913545 0
    outer loop
      vertex -15 28.7024 70
      vertex -16.25 28.1458 70
      vertex -15 28.7024 25
    endloop
  endfacet
  facet normal 0.406737 -0.913545 0
    outer loop
      vertex -16.25 28.1458 70
      vertex -16.25 28.1458 3
      vertex -15 28.7024 25
    endloop
  endfacet
  facet normal 0.207912 -0.978148 0
    outer loop
      vertex -3.39717 32.322 3
      vertex -3.39717 32.322 25
      vertex -10.0431 30.9093 25
    endloop
  endfacet
  facet normal 0.207912 -0.978148 0
    outer loop
      vertex -10.0431 30.9093 3
      vertex -3.39717 32.322 3
      vertex -10.0431 30.9093 25
    endloop
  endfacet
  facet normal 0 -1 0
    outer loop
      vertex 3.39717 32.322 25
      vertex 0 32.322 10
      vertex 3.39717 32.322 10
    endloop
  endfacet
  facet normal 0 -1 0
    outer loop
      vertex -3.39717 32.322 25
      vertex 0 32.322 10
      vertex 3.39717 32.322 25
    endloop
  endfacet
  facet normal 0 -1 0
    outer loop
      vertex 0 32.322 3
      vertex 0 32.322 10
      vertex -3.39717 32.322 25
    endloop
  endfacet
  facet normal 0 -1 0
    outer loop
      vertex -3.39717 32.322 3
      vertex 0 32.322 3
      vertex -3.39717 32.322 25
    endloop
  endfacet
  facet normal -0.406737 -0.913545 0
    outer loop
      vertex 12 30.038 10
      vertex 12 30.038 3
      vertex 16.25 28.1458 3
    endloop
  endfacet
  facet normal -0.406737 -0.913545 0
    outer loop
      vertex 15 28.7024 25
      vertex 10.0431 30.9093 25
      vertex 12 30.038 10
    endloop
  endfacet
  facet normal -0.406737 -0.913545 0
    outer loop
      vertex 15 28.7024 25
      vertex 12 30.038 10
      vertex 16.25 28.1458 3
    endloop
  endfacet
  facet normal -0.406737 -0.913545 0
    outer loop
      vertex 16.25 28.1458 70
      vertex 15 28.7024 25
      vertex 16.25 28.1458 3
    endloop
  endfacet
  facet normal -0.406737 -0.913545 0
    outer loop
      vertex 15 28.7024 70
      vertex 15 28.7024 25
      vertex 16.25 28.1458 70
    endloop
  endfacet
  facet normal -0.406737 -0.913545 0
    outer loop
      vertex 10.0431 30.9093 10
      vertex 12 30.038 10
      vertex 10.0431 30.9093 25
    endloop
  endfacet
  facet normal -0.587785 -0.809017 0
    outer loop
      vertex 21.7467 24.1522 70
      vertex 20 25.4213 10
      vertex 21.7467 24.1522 10
    endloop
  endfacet
  facet normal -0.587785 -0.809017 0
    outer loop
      vertex 16.25 28.1458 70
      vertex 20 25.4213 10
      vertex 21.7467 24.1522 70
    endloop
  endfacet
  facet normal -0.587785 -0.809017 0
    outer loop
      vertex 20 25.4213 3
      vertex 20 25.4213 10
      vertex 16.25 28.1458 70
    endloop
  endfacet
  facet normal -0.587785 -0.809017 0
    outer loop
      vertex 16.25 28.1458 3
      vertex 20 25.4213 3
      vertex 16.25 28.1458 70
    endloop
  endfacet
  facet normal -0.951057 -0.309017 0
    outer loop
      vertex 30 12.2656 3
      vertex 30.7361 10 3
      vertex 30 12.2656 10
    endloop
  endfacet
  facet normal -0.951057 -0.309017 0
    outer loop
      vertex 30 12.2656 10
      vertex 30.7361 10 3
      vertex 30.7361 10 10
    endloop
  endfacet
  facet normal -0.951057 -0.309017 0
    outer loop
      vertex 30.7361 10 10
      vertex 31.7898 6.75713 10
      vertex 31.7898 6.75713 25
    endloop
  endfacet
  facet normal -0.951057 -0.309017 0
    outer loop
      vertex 30.7361 10 10
      vertex 31.7898 6.75713 25
      vertex 30 12.2656 10
    endloop
  endfacet
  facet normal -0.951057 -0.309017 0
    outer loop
      vertex 30 12.2656 10
      vertex 31.7898 6.75713 25
      vertex 29.6902 13.2189 25
    endloop
  endfacet
  facet normal -0.951057 -0.309017 0
    outer loop
      vertex 30 12.2656 10
      vertex 29.6902 13.2189 25
      vertex 29.6902 13.2189 10
    endloop
  endfacet
  facet normal -0.951057 0.309017 0
    outer loop
      vertex 31.7898 -6.75713 25
      vertex 31.7898 -6.75713 10
      vertex 29.6902 -13.2189 25
    endloop
  endfacet
  facet normal -0.951057 0.309017 0
    outer loop
      vertex 29.6902 -13.2189 25
      vertex 31.7898 -6.75713 10
      vertex 30.7361 -10 10
    endloop
  endfacet
  facet normal -0.951057 0.309017 0
    outer loop
      vertex 29.6902 -13.2189 25
      vertex 30.7361 -10 10
      vertex 30.7361 -10 3
    endloop
  endfacet
  facet normal -0.951057 0.309017 0
    outer loop
      vertex 30 -12.2656 10
      vertex 30.7361 -10 3
      vertex 30 -12.2656 3
    endloop
  endfacet
  facet normal -0.951057 0.309017 0
    outer loop
      vertex 29.6902 -13.2189 25
      vertex 30.7361 -10 3
      vertex 30 -12.2656 10
    endloop
  endfacet
  facet normal -0.951057 0.309017 0
    outer loop
      vertex 29.6902 -13.2189 10
      vertex 29.6902 -13.2189 25
      vertex 30 -12.2656 10
    endloop
  endfacet
  facet normal -0.587785 0.809017 0
    outer loop
      vertex 21.7467 -24.1522 70
      vertex 21.7467 -24.1522 10
      vertex 16.25 -28.1458 70
    endloop
  endfacet
  facet normal -0.587785 0.809017 0
    outer loop
      vertex 16.25 -28.1458 70
      vertex 21.7467 -24.1522 10
      vertex 20 -25.4213 10
    endloop
  endfacet
  facet normal -0.587785 0.809017 0
    outer loop
      vertex 16.25 -28.1458 70
      vertex 20 -25.4213 10
      vertex 20 -25.4213 3
    endloop
  endfacet
  facet normal -0.587785 0.809017 0
    outer loop
      vertex 16.25 -28.1458 70
      vertex 20 -25.4213 3
      vertex 16.25 -28.1458 3
    endloop
  endfacet
  facet normal -0.406737 0.913545 0
    outer loop
      vertex 15 -28.7024 25
      vertex 15 -28.7024 70
      vertex 16.25 -28.1458 70
    endloop
  endfacet
  facet normal -0.406737 0.913545 0
    outer loop
      vertex 15 -28.7024 25
      vertex 16.25 -28.1458 70
      vertex 16.25 -28.1458 3
    endloop
  endfacet
  facet normal -0.406737 0.913545 0
    outer loop
      vertex 15 -28.7024 25
      vertex 16.25 -28.1458 3
      vertex 10.0431 -30.9093 25
    endloop
  endfacet
  facet normal -0.406737 0.913545 0
    outer loop
      vertex 16.25 -28.1458 3
      vertex 12 -30.038 3
      vertex 12 -30.038 10
    endloop
  endfacet
  facet normal -0.406737 0.913545 0
    outer loop
      vertex 16.25 -28.1458 3
      vertex 12 -30.038 10
      vertex 10.0431 -30.9093 25
    endloop
  endfacet
  facet normal -0.406737 0.913545 0
    outer loop
      vertex 10.0431 -30.9093 10
      vertex 10.0431 -30.9093 25
      vertex 12 -30.038 10
    endloop
  endfacet
  facet normal 0 1 0
    outer loop
      vertex 3.39717 -32.322 25
      vertex 3.39717 -32.322 10
      vertex -3.39717 -32.322 25
    endloop
  endfacet
  facet normal 0 1 0
    outer loop
      vertex -3.39717 -32.322 25
      vertex 3.39717 -32.322 10
      vertex 0 -32.322 10
    endloop
  endfacet
  facet normal 0 1 0
    outer loop
      vertex -3.39717 -32.322 25
      vertex 0 -32.322 10
      vertex 0 -32.322 3
    endloop
  endfacet
  facet normal 0 1 0
    outer loop
      vertex -3.39717 -32.322 25
      vertex 0 -32.322 3
      vertex -3.39717 -32.322 3
    endloop
  endfacet
  facet normal 0.207912 0.978148 0
    outer loop
      vertex -3.39717 -32.322 25
      vertex -3.39717 -32.322 3
      vertex -10.0431 -30.9093 25
    endloop
  endfacet
  facet normal 0.207912 0.978148 0
    outer loop
      vertex -10.0431 -30.9093 25
      vertex -3.39717 -32.322 3
      vertex -10.0431 -30.9093 3
    endloop
  endfacet
  facet normal 0.406737 0.913545 0
    outer loop
      vertex -15 -28.7024 70
      vertex -15 -28.7024 25
      vertex -16.25 -28.1458 70
    endloop
  endfacet
  facet normal 0.406737 0.913545 0
    outer loop
      vertex -10.0431 -30.9093 3
      vertex -15 -28.7024 25
      vertex -10.0431 -30.9093 25
    endloop
  endfacet
  facet normal 0.406737 0.913545 0
    outer loop
      vertex -16.25 -28.1458 3
      vertex -15 -28.7024 25
      vertex -10.0431 -30.9093 3
    endloop
  endfacet
  facet normal 0.406737 0.913545 0
    outer loop
      vertex -16.25 -28.1458 70
      vertex -15 -28.7024 25
      vertex -16.25 -28.1458 3
    endloop
  endfacet
  facet normal 0.587785 0.809017 0
    outer loop
      vertex -16.25 -28.1458 70
      vertex -16.25 -28.1458 3
      vertex -21.7467 -24.1522 70
    endloop
  endfacet
  facet normal 0.587785 0.809017 0
    outer loop
      vertex -21.7467 -24.1522 70
      vertex -16.25 -28.1458 3
      vertex -21.7467 -24.1522 3
    endloop
  endfacet
  facet normal 0.743145 0.669131 0
    outer loop
      vertex -26.2931 -19.103 70
      vertex -21.7467 -24.1522 70
      vertex -21.7467 -24.1522 3
    endloop
  endfacet
  facet normal 0.743145 0.669131 0
    outer loop
      vertex -26.2931 -19.103 3
      vertex -26.2931 -19.103 70
      vertex -21.7467 -24.1522 3
    endloop
  endfacet
  facet normal 0.866025 0.5 0
    outer loop
      vertex -26.2931 -19.103 70
      vertex -28.6619 -15 25
      vertex -28.6619 -15 70
    endloop
  endfacet
  facet normal 0.866025 0.5 0
    outer loop
      vertex -26.2931 -19.103 3
      vertex -28.6619 -15 25
      vertex -26.2931 -19.103 70
    endloop
  endfacet
  facet normal 0.866025 0.5 0
    outer loop
      vertex -29.6902 -13.2189 25
      vertex -28.6619 -15 25
      vertex -26.2931 -19.103 3
    endloop
  endfacet
  facet normal 0.866025 0.5 0
    outer loop
      vertex -29.6902 -13.2189 3
      vertex -29.6902 -13.2189 25
      vertex -26.2931 -19.103 3
    endloop
  endfacet
  facet normal 0.951057 0.309017 0
    outer loop
      vertex -29.6925 -13.212 10
      vertex -29.6902 -13.2189 25
      vertex -29.6902 -13.2189 3
    endloop
  endfacet
  facet normal 0.951057 0.309017 0
    outer loop
      vertex -29.6925 -13.212 10
      vertex -31.7898 -6.75713 10
      vertex -31.7898 -6.75713 25
    endloop
  endfacet
  facet normal 0.951057 0.309017 0
    outer loop
      vertex -31.7898 -6.75713 25
      vertex -29.6902 -13.2189 25
      vertex -29.6925 -13.212 10
    endloop
  endfacet
  facet normal 0.951057 0.309017 0
    outer loop
      vertex -29.6925 -13.212 3
      vertex -29.6925 -13.212 10
      vertex -29.6902 -13.2189 3
    endloop
  endfacet
  facet normal 0.994522 0.104528 0
    outer loop
      vertex -32.5 0 25
      vertex -31.7898 -6.75713 25
      vertex -31.7898 -6.75713 10
    endloop
  endfacet
  facet normal 0.994522 0.104528 0
    outer loop
      vertex -32.5 0 10
      vertex -32.5 0 25
      vertex -31.7898 -6.75713 10
    endloop
  endfacet
  facet normal 0.994522 -0.104528 0
    outer loop
      vertex -31.7898 6.75713 10
      vertex -31.7898 6.75713 25
      vertex -32.5 0 25
    endloop
  endfacet
  facet normal 0.994522 -0.104528 0
    outer loop
      vertex -32.5 0 10
      vertex -31.7898 6.75713 10
      vertex -32.5 0 25
    endloop
  endfacet
  facet normal -0.207912 0.978148 0
    outer loop
      vertex 10.0431 -30.9093 25
      vertex 10.0431 -30.9093 10
      vertex 3.39717 -32.322 25
    endloop
  endfacet
  facet normal -0.207912 0.978148 0
    outer loop
      vertex 3.39717 -32.322 25
      vertex 10.0431 -30.9093 10
      vertex 3.39717 -32.322 10
    endloop
  endfacet
  facet normal -0.743145 0.669131 0
    outer loop
      vertex 26.2931 -19.103 70
      vertex 26.2931 -19.103 10
      vertex 21.7467 -24.1522 70
    endloop
  endfacet
  facet normal -0.743145 0.669131 0
    outer loop
      vertex 21.7467 -24.1522 70
      vertex 26.2931 -19.103 10
      vertex 21.7467 -24.1522 10
    endloop
  endfacet
  facet normal -0.866025 0.5 0
    outer loop
      vertex 28.6619 -15 70
      vertex 28.6619 -15 25
      vertex 26.2931 -19.103 70
    endloop
  endfacet
  facet normal -0.866025 0.5 0
    outer loop
      vertex 29.6902 -13.2189 10
      vertex 28.6619 -15 25
      vertex 29.6902 -13.2189 25
    endloop
  endfacet
  facet normal -0.866025 0.5 0
    outer loop
      vertex 26.2931 -19.103 10
      vertex 28.6619 -15 25
      vertex 29.6902 -13.2189 10
    endloop
  endfacet
  facet normal -0.866025 0.5 0
    outer loop
      vertex 26.2931 -19.103 70
      vertex 28.6619 -15 25
      vertex 26.2931 -19.103 10
    endloop
  endfacet
  facet normal -0.994522 0.104528 0
    outer loop
      vertex 32.5 0 25
      vertex 32.5 0 10
      vertex 31.7898 -6.75713 25
    endloop
  endfacet
  facet normal -0.994522 0.104528 0
    outer loop
      vertex 31.7898 -6.75713 25
      vertex 32.5 0 10
      vertex 31.7898 -6.75713 10
    endloop
  endfacet
  facet normal -0.994522 -0.104528 0
    outer loop
      vertex 32.5 0 25
      vertex 31.7898 6.75713 25
      vertex 32.5 0 10
    endloop
  endfacet
  facet normal -0.994522 -0.104528 0
    outer loop
      vertex 32.5 0 10
      vertex 31.7898 6.75713 25
      vertex 31.7898 6.75713 10
    endloop
  endfacet
  facet normal -0.866025 -0.5 0
    outer loop
      vertex 29.6902 13.2189 25
      vertex 28.6619 15 25
      vertex 29.6902 13.2189 10
    endloop
  endfacet
  facet normal -0.866025 -0.5 0
    outer loop
      vertex 26.2931 19.103 70
      vertex 28.6619 15 25
      vertex 28.6619 15 70
    endloop
  endfacet
  facet normal -0.866025 -0.5 0
    outer loop
      vertex 26.2931 19.103 10
      vertex 28.6619 15 25
      vertex 26.2931 19.103 70
    endloop
  endfacet
  facet normal -0.866025 -0.5 0
    outer loop
      vertex 29.6902 13.2189 10
      vertex 28.6619 15 25
      vertex 26.2931 19.103 10
    endloop
  endfacet
  facet normal -0.743145 -0.669131 0
    outer loop
      vertex 26.2931 19.103 70
      vertex 21.7467 24.1522 70
      vertex 26.2931 19.103 10
    endloop
  endfacet
  facet normal -0.743145 -0.669131 0
    outer loop
      vertex 26.2931 19.103 10
      vertex 21.7467 24.1522 70
      vertex 21.7467 24.1522 10
    endloop
  endfacet
  facet normal -0.207912 -0.978148 0
    outer loop
      vertex 10.0431 30.9093 10
      vertex 10.0431 30.9093 25
      vertex 3.39717 32.322 25
    endloop
  endfacet
  facet normal -0.207912 -0.978148 0
    outer loop
      vertex 3.39717 32.322 10
      vertex 10.0431 30.9093 10
      vertex 3.39717 32.322 25
    endloop
  endfacet
endsolid OpenSCAD_Model
