solid OpenSCAD_Model
  facet normal 0 0 -1
    outer loop
      vertex -31.5 0 0
      vertex -30.8116 6.54922 0
      vertex -30.8116 -6.54922 0
    endloop
  endfacet
  facet normal 0 0 -1
    outer loop
      vertex -30.8116 -6.54922 0
      vertex -30.8116 6.54922 0
      vertex -28.7767 12.8122 0
    endloop
  endfacet
  facet normal 0 0 -1
    outer loop
      vertex -26.9496 11.9987 0
      vertex -28.7767 12.8122 0
      vertex -25.484 18.5152 0
    endloop
  endfacet
  facet normal 0 0 -1
    outer loop
      vertex -23.866 17.3397 0
      vertex -25.484 18.5152 0
      vertex -21.0776 23.4091 0
    endloop
  endfacet
  facet normal 0 0 -1
    outer loop
      vertex -19.7394 21.9228 0
      vertex -21.0776 23.4091 0
      vertex -15.75 27.2798 0
    endloop
  endfacet
  facet normal 0 0 -1
    outer loop
      vertex -14.75 25.5477 0
      vertex -15.75 27.2798 0
      vertex -9.73404 29.9583 0
    endloop
  endfacet
  facet normal 0 0 -1
    outer loop
      vertex -9.116 28.0562 0
      vertex -9.73404 29.9583 0
      vertex -3.29265 31.3274 0
    endloop
  endfacet
  facet normal 0 0 -1
    outer loop
      vertex -3.08359 29.3384 0
      vertex -3.29265 31.3274 0
      vertex 3.29265 31.3274 0
    endloop
  endfacet
  facet normal 0 0 -1
    outer loop
      vertex 3.08359 29.3384 0
      vertex 3.29265 31.3274 0
      vertex 9.73404 29.9583 0
    endloop
  endfacet
  facet normal 0 0 -1
    outer loop
      vertex 9.116 28.0562 0
      vertex 9.73404 29.9583 0
      vertex 15.75 27.2798 0
    endloop
  endfacet
  facet normal 0 0 -1
    outer loop
      vertex 14.75 25.5477 0
      vertex 15.75 27.2798 0
      vertex 21.0776 23.4091 0
    endloop
  endfacet
  facet normal 0 0 -1
    outer loop
      vertex 19.7394 21.9228 0
      vertex 21.0776 23.4091 0
      vertex 25.484 18.5152 0
    endloop
  endfacet
  facet normal 0 0 -1
    outer loop
      vertex 23.866 17.3397 0
      vertex 25.484 18.5152 0
      vertex 28.7767 12.8122 0
    endloop
  endfacet
  facet normal 0 0 -1
    outer loop
      vertex 28.8554 6.1334 0
      vertex 28.7767 12.8122 0
      vertex 30.8116 6.54922 0
    endloop
  endfacet
  facet normal 0 0 -1
    outer loop
      vertex 29.5 0 0
      vertex 30.8116 6.54922 0
      vertex 31.5 0 0
    endloop
  endfacet
  facet normal 0 0 -1
    outer loop
      vertex 28.8554 -6.1334 0
      vertex 31.5 0 0
      vertex 30.8116 -6.54922 0
    endloop
  endfacet
  facet normal 0 0 -1
    outer loop
      vertex 26.9496 -11.9987 0
      vertex 30.8116 -6.54922 0
      vertex 28.7767 -12.8122 0
    endloop
  endfacet
  facet normal 0 0 -1
    outer loop
      vertex 23.866 -17.3397 0
      vertex 28.7767 -12.8122 0
      vertex 25.484 -18.5152 0
    endloop
  endfacet
  facet normal 0 0 -1
    outer loop
      vertex 19.7394 -21.9228 0
      vertex 25.484 -18.5152 0
      vertex 21.0776 -23.4091 0
    endloop
  endfacet
  facet normal 0 0 -1
    outer loop
      vertex 14.75 -25.5477 0
      vertex 21.0776 -23.4091 0
      vertex 15.75 -27.2798 0
    endloop
  endfacet
  facet normal 0 0 -1
    outer loop
      vertex 9.116 -28.0562 0
      vertex 15.75 -27.2798 0
      vertex 9.73404 -29.9583 0
    endloop
  endfacet
  facet normal 0 0 -1
    outer loop
      vertex 3.08359 -29.3384 0
      vertex 9.73404 -29.9583 0
      vertex 3.29265 -31.3274 0
    endloop
  endfacet
  facet normal 0 0 -1
    outer loop
      vertex -3.08359 -29.3384 0
      vertex 3.29265 -31.3274 0
      vertex -3.29265 -31.3274 0
    endloop
  endfacet
  facet normal 0 0 -1
    outer loop
      vertex -9.116 -28.0562 0
      vertex -3.29265 -31.3274 0
      vertex -9.73404 -29.9583 0
    endloop
  endfacet
  facet normal 0 0 -1
    outer loop
      vertex -14.75 -25.5477 0
      vertex -9.73404 -29.9583 0
      vertex -15.75 -27.2798 0
    endloop
  endfacet
  facet normal 0 0 -1
    outer loop
      vertex -23.866 -17.3397 0
      vertex -15.75 -27.2798 0
      vertex -21.0776 -23.4091 0
    endloop
  endfacet
  facet normal 0 0 -1
    outer loop
      vertex -30.8116 -6.54922 0
      vertex -21.0776 -23.4091 0
      vertex -25.484 -18.5152 0
    endloop
  endfacet
  facet normal 0 0 -1
    outer loop
      vertex -30.8116 -6.54922 0
      vertex -25.484 -18.5152 0
      vertex -28.7767 -12.8122 0
    endloop
  endfacet
  facet normal 0 0 -1
    outer loop
      vertex -30.8116 -6.54922 0
      vertex -28.7767 12.8122 0
      vertex -29.5 0 0
    endloop
  endfacet
  facet normal 0 0 -1
    outer loop
      vertex -26.9496 -11.9987 0
      vertex -30.8116 -6.54922 0
      vertex -28.8554 -6.1334 0
    endloop
  endfacet
  facet normal 0 0 -1
    outer loop
      vertex -14.75 -25.5477 0
      vertex -15.75 -27.2798 0
      vertex -19.7394 -21.9228 0
    endloop
  endfacet
  facet normal 0 0 -1
    outer loop
      vertex -30.8116 -6.54922 0
      vertex -26.9496 -11.9987 0
      vertex -21.0776 -23.4091 0
    endloop
  endfacet
  facet normal 0 0 -1
    outer loop
      vertex -19.7394 -21.9228 0
      vertex -15.75 -27.2798 0
      vertex -23.866 -17.3397 0
    endloop
  endfacet
  facet normal 0 0 -1
    outer loop
      vertex -26.9496 -11.9987 0
      vertex -23.866 -17.3397 0
      vertex -21.0776 -23.4091 0
    endloop
  endfacet
  facet normal 0 0 -1
    outer loop
      vertex 28.8554 6.1334 0
      vertex 30.8116 6.54922 0
      vertex 29.5 0 0
    endloop
  endfacet
  facet normal 0 0 -1
    outer loop
      vertex 26.9496 11.9987 0
      vertex 28.7767 12.8122 0
      vertex 28.8554 6.1334 0
    endloop
  endfacet
  facet normal 0 0 -1
    outer loop
      vertex 29.5 0 0
      vertex 31.5 0 0
      vertex 28.8554 -6.1334 0
    endloop
  endfacet
  facet normal 0 0 -1
    outer loop
      vertex 28.8554 -6.1334 0
      vertex 30.8116 -6.54922 0
      vertex 26.9496 -11.9987 0
    endloop
  endfacet
  facet normal 0 0 -1
    outer loop
      vertex 26.9496 -11.9987 0
      vertex 28.7767 -12.8122 0
      vertex 23.866 -17.3397 0
    endloop
  endfacet
  facet normal 0 0 -1
    outer loop
      vertex 23.866 -17.3397 0
      vertex 25.484 -18.5152 0
      vertex 19.7394 -21.9228 0
    endloop
  endfacet
  facet normal 0 0 -1
    outer loop
      vertex 19.7394 -21.9228 0
      vertex 21.0776 -23.4091 0
      vertex 14.75 -25.5477 0
    endloop
  endfacet
  facet normal 0 0 -1
    outer loop
      vertex 14.75 -25.5477 0
      vertex 15.75 -27.2798 0
      vertex 9.116 -28.0562 0
    endloop
  endfacet
  facet normal 0 0 -1
    outer loop
      vertex 9.116 -28.0562 0
      vertex 9.73404 -29.9583 0
      vertex 3.08359 -29.3384 0
    endloop
  endfacet
  facet normal 0 0 -1
    outer loop
      vertex 3.08359 -29.3384 0
      vertex 3.29265 -31.3274 0
      vertex -3.08359 -29.3384 0
    endloop
  endfacet
  facet normal 0 0 -1
    outer loop
      vertex -3.08359 -29.3384 0
      vertex -3.29265 -31.3274 0
      vertex -9.116 -28.0562 0
    endloop
  endfacet
  facet normal 0 0 -1
    outer loop
      vertex -9.116 -28.0562 0
      vertex -9.73404 -29.9583 0
      vertex -14.75 -25.5477 0
    endloop
  endfacet
  facet normal 0 0 -1
    outer loop
      vertex -28.8554 6.1334 0
      vertex -28.7767 12.8122 0
      vertex -26.9496 11.9987 0
    endloop
  endfacet
  facet normal 0 0 -1
    outer loop
      vertex -29.5 0 0
      vertex -28.7767 12.8122 0
      vertex -28.8554 6.1334 0
    endloop
  endfacet
  facet normal 0 0 -1
    outer loop
      vertex -28.8554 -6.1334 0
      vertex -30.8116 -6.54922 0
      vertex -29.5 0 0
    endloop
  endfacet
  facet normal 0 0 -1
    outer loop
      vertex -26.9496 11.9987 0
      vertex -25.484 18.5152 0
      vertex -23.866 17.3397 0
    endloop
  endfacet
  facet normal 0 0 -1
    outer loop
      vertex -23.866 17.3397 0
      vertex -21.0776 23.4091 0
      vertex -19.7394 21.9228 0
    endloop
  endfacet
  facet normal 0 0 -1
    outer loop
      vertex -19.7394 21.9228 0
      vertex -15.75 27.2798 0
      vertex -14.75 25.5477 0
    endloop
  endfacet
  facet normal 0 0 -1
    outer loop
      vertex -14.75 25.5477 0
      vertex -9.73404 29.9583 0
      vertex -9.116 28.0562 0
    endloop
  endfacet
  facet normal 0 0 -1
    outer loop
      vertex -9.116 28.0562 0
      vertex -3.29265 31.3274 0
      vertex -3.08359 29.3384 0
    endloop
  endfacet
  facet normal 0 0 -1
    outer loop
      vertex -3.08359 29.3384 0
      vertex 3.29265 31.3274 0
      vertex 3.08359 29.3384 0
    endloop
  endfacet
  facet normal 0 0 -1
    outer loop
      vertex 3.08359 29.3384 0
      vertex 9.73404 29.9583 0
      vertex 9.116 28.0562 0
    endloop
  endfacet
  facet normal 0 0 -1
    outer loop
      vertex 9.116 28.0562 0
      vertex 15.75 27.2798 0
      vertex 14.75 25.5477 0
    endloop
  endfacet
  facet normal 0 0 -1
    outer loop
      vertex 14.75 25.5477 0
      vertex 21.0776 23.4091 0
      vertex 19.7394 21.9228 0
    endloop
  endfacet
  facet normal 0 0 -1
    outer loop
      vertex 19.7394 21.9228 0
      vertex 25.484 18.5152 0
      vertex 23.866 17.3397 0
    endloop
  endfacet
  facet normal 0 0 -1
    outer loop
      vertex 23.866 17.3397 0
      vertex 28.7767 12.8122 0
      vertex 26.9496 11.9987 0
    endloop
  endfacet
  facet normal -0.994522 0.104529 0
    outer loop
      vertex -31.5 0 0
      vertex -31.5 0 25
      vertex -30.8116 6.54922 0
    endloop
  endfacet
  facet normal -0.994522 0.104529 0
    outer loop
      vertex -30.8116 6.54922 0
      vertex -31.5 0 25
      vertex -30.8116 6.54922 25
    endloop
  endfacet
  facet normal -0.994522 -0.104529 0
    outer loop
      vertex -31.5 0 0
      vertex -30.8116 -6.54922 0
      vertex -31.5 0 25
    endloop
  endfacet
  facet normal -0.994522 -0.104529 0
    outer loop
      vertex -31.5 0 25
      vertex -30.8116 -6.54922 0
      vertex -30.8116 -6.54922 25
    endloop
  endfacet
  facet normal -0.951057 -0.309017 0
    outer loop
      vertex -30.8116 -6.54922 0
      vertex -28.7767 -12.8122 0
      vertex -30.8116 -6.54922 25
    endloop
  endfacet
  facet normal -0.951057 -0.309017 0
    outer loop
      vertex -30.8116 -6.54922 25
      vertex -28.7767 -12.8122 0
      vertex -28.7767 -12.8122 25
    endloop
  endfacet
  facet normal -0.866025 -0.5 0
    outer loop
      vertex -28.7767 -12.8122 0
      vertex -25.484 -18.5152 0
      vertex -28.7767 -12.8122 25
    endloop
  endfacet
  facet normal -0.866025 -0.5 0
    outer loop
      vertex -28.7767 -12.8122 25
      vertex -25.484 -18.5152 0
      vertex -25.484 -18.5152 25
    endloop
  endfacet
  facet normal -0.743145 -0.669131 0
    outer loop
      vertex -25.484 -18.5152 0
      vertex -21.0776 -23.4091 0
      vertex -25.484 -18.5152 25
    endloop
  endfacet
  facet normal -0.743145 -0.669131 0
    outer loop
      vertex -25.484 -18.5152 25
      vertex -21.0776 -23.4091 0
      vertex -21.0776 -23.4091 25
    endloop
  endfacet
  facet normal -0.587785 -0.809017 0
    outer loop
      vertex -21.0776 -23.4091 25
      vertex -21.0776 -23.4091 0
      vertex -15.75 -27.2798 0
    endloop
  endfacet
  facet normal -0.587785 -0.809017 0
    outer loop
      vertex -15.75 -27.2798 25
      vertex -21.0776 -23.4091 25
      vertex -15.75 -27.2798 0
    endloop
  endfacet
  facet normal -0.406737 -0.913545 0
    outer loop
      vertex -15.75 -27.2798 25
      vertex -15.75 -27.2798 0
      vertex -9.73404 -29.9583 0
    endloop
  endfacet
  facet normal -0.406737 -0.913545 0
    outer loop
      vertex -9.73404 -29.9583 25
      vertex -15.75 -27.2798 25
      vertex -9.73404 -29.9583 0
    endloop
  endfacet
  facet normal -0.207912 -0.978148 0
    outer loop
      vertex -9.73404 -29.9583 25
      vertex -9.73404 -29.9583 0
      vertex -3.29265 -31.3274 0
    endloop
  endfacet
  facet normal -0.207912 -0.978148 0
    outer loop
      vertex -3.29265 -31.3274 25
      vertex -9.73404 -29.9583 25
      vertex -3.29265 -31.3274 0
    endloop
  endfacet
  facet normal 0 -1 0
    outer loop
      vertex -3.29265 -31.3274 25
      vertex -3.29265 -31.3274 0
      vertex 3.29265 -31.3274 0
    endloop
  endfacet
  facet normal 0 -1 0
    outer loop
      vertex 3.29265 -31.3274 25
      vertex -3.29265 -31.3274 25
      vertex 3.29265 -31.3274 0
    endloop
  endfacet
  facet normal 0.207912 -0.978148 0
    outer loop
      vertex 3.29265 -31.3274 25
      vertex 3.29265 -31.3274 0
      vertex 9.73404 -29.9583 0
    endloop
  endfacet
  facet normal 0.207912 -0.978148 0
    outer loop
      vertex 9.73404 -29.9583 25
      vertex 3.29265 -31.3274 25
      vertex 9.73404 -29.9583 0
    endloop
  endfacet
  facet normal 0.406737 -0.913545 0
    outer loop
      vertex 9.73404 -29.9583 25
      vertex 9.73404 -29.9583 0
      vertex 15.75 -27.2798 0
    endloop
  endfacet
  facet normal 0.406737 -0.913545 0
    outer loop
      vertex 15.75 -27.2798 25
      vertex 9.73404 -29.9583 25
      vertex 15.75 -27.2798 0
    endloop
  endfacet
  facet normal 0.587785 -0.809017 0
    outer loop
      vertex 15.75 -27.2798 25
      vertex 15.75 -27.2798 0
      vertex 21.0776 -23.4091 0
    endloop
  endfacet
  facet normal 0.587785 -0.809017 0
    outer loop
      vertex 21.0776 -23.4091 25
      vertex 15.75 -27.2798 25
      vertex 21.0776 -23.4091 0
    endloop
  endfacet
  facet normal 0.743145 -0.669131 0
    outer loop
      vertex 21.0776 -23.4091 25
      vertex 21.0776 -23.4091 0
      vertex 25.484 -18.5152 0
    endloop
  endfacet
  facet normal 0.743145 -0.669131 0
    outer loop
      vertex 25.484 -18.5152 25
      vertex 21.0776 -23.4091 25
      vertex 25.484 -18.5152 0
    endloop
  endfacet
  facet normal 0.866025 -0.5 0
    outer loop
      vertex 25.484 -18.5152 25
      vertex 25.484 -18.5152 0
      vertex 28.7767 -12.8122 0
    endloop
  endfacet
  facet normal 0.866025 -0.5 0
    outer loop
      vertex 28.7767 -12.8122 25
      vertex 25.484 -18.5152 25
      vertex 28.7767 -12.8122 0
    endloop
  endfacet
  facet normal 0.951057 -0.309017 0
    outer loop
      vertex 28.7767 -12.8122 25
      vertex 28.7767 -12.8122 0
      vertex 30.8116 -6.54922 0
    endloop
  endfacet
  facet normal 0.951057 -0.309017 0
    outer loop
      vertex 30.8116 -6.54922 25
      vertex 28.7767 -12.8122 25
      vertex 30.8116 -6.54922 0
    endloop
  endfacet
  facet normal 0.994522 -0.104529 0
    outer loop
      vertex 30.8116 -6.54922 25
      vertex 30.8116 -6.54922 0
      vertex 31.5 0 0
    endloop
  endfacet
  facet normal 0.994522 -0.104529 0
    outer loop
      vertex 31.5 0 25
      vertex 30.8116 -6.54922 25
      vertex 31.5 0 0
    endloop
  endfacet
  facet normal 0.994522 0.104529 0
    outer loop
      vertex 31.5 0 0
      vertex 30.8116 6.54922 0
      vertex 30.8116 6.54922 25
    endloop
  endfacet
  facet normal 0.994522 0.104529 0
    outer loop
      vertex 31.5 0 25
      vertex 31.5 0 0
      vertex 30.8116 6.54922 25
    endloop
  endfacet
  facet normal 0.951057 0.309017 0
    outer loop
      vertex 30.8116 6.54922 0
      vertex 28.7767 12.8122 0
      vertex 28.7767 12.8122 25
    endloop
  endfacet
  facet normal 0.951057 0.309017 0
    outer loop
      vertex 30.8116 6.54922 25
      vertex 30.8116 6.54922 0
      vertex 28.7767 12.8122 25
    endloop
  endfacet
  facet normal 0.866025 0.5 0
    outer loop
      vertex 28.7767 12.8122 0
      vertex 25.484 18.5152 0
      vertex 25.484 18.5152 25
    endloop
  endfacet
  facet normal 0.866025 0.5 0
    outer loop
      vertex 28.7767 12.8122 25
      vertex 28.7767 12.8122 0
      vertex 25.484 18.5152 25
    endloop
  endfacet
  facet normal 0.743145 0.669131 0
    outer loop
      vertex 25.484 18.5152 0
      vertex 21.0776 23.4091 0
      vertex 21.0776 23.4091 25
    endloop
  endfacet
  facet normal 0.743145 0.669131 0
    outer loop
      vertex 25.484 18.5152 25
      vertex 25.484 18.5152 0
      vertex 21.0776 23.4091 25
    endloop
  endfacet
  facet normal 0.587785 0.809017 0
    outer loop
      vertex 15.75 27.2798 0
      vertex 15.75 27.2798 25
      vertex 21.0776 23.4091 0
    endloop
  endfacet
  facet normal 0.587785 0.809017 0
    outer loop
      vertex 21.0776 23.4091 0
      vertex 15.75 27.2798 25
      vertex 21.0776 23.4091 25
    endloop
  endfacet
  facet normal 0.406737 0.913545 0
    outer loop
      vertex 9.73404 29.9583 0
      vertex 9.73404 29.9583 25
      vertex 15.75 27.2798 0
    endloop
  endfacet
  facet normal 0.406737 0.913545 0
    outer loop
      vertex 15.75 27.2798 0
      vertex 9.73404 29.9583 25
      vertex 15.75 27.2798 25
    endloop
  endfacet
  facet normal 0.207912 0.978148 0
    outer loop
      vertex 3.29265 31.3274 0
      vertex 3.29265 31.3274 25
      vertex 9.73404 29.9583 0
    endloop
  endfacet
  facet normal 0.207912 0.978148 0
    outer loop
      vertex 9.73404 29.9583 0
      vertex 3.29265 31.3274 25
      vertex 9.73404 29.9583 25
    endloop
  endfacet
  facet normal 0 1 0
    outer loop
      vertex -3.29265 31.3274 0
      vertex -3.29265 31.3274 25
      vertex 3.29265 31.3274 0
    endloop
  endfacet
  facet normal 0 1 0
    outer loop
      vertex 3.29265 31.3274 0
      vertex -3.29265 31.3274 25
      vertex 3.29265 31.3274 25
    endloop
  endfacet
  facet normal -0.207912 0.978148 0
    outer loop
      vertex -9.73404 29.9583 0
      vertex -9.73404 29.9583 25
      vertex -3.29265 31.3274 0
    endloop
  endfacet
  facet normal -0.207912 0.978148 0
    outer loop
      vertex -3.29265 31.3274 0
      vertex -9.73404 29.9583 25
      vertex -3.29265 31.3274 25
    endloop
  endfacet
  facet normal -0.406737 0.913545 0
    outer loop
      vertex -15.75 27.2798 0
      vertex -15.75 27.2798 25
      vertex -9.73404 29.9583 0
    endloop
  endfacet
  facet normal -0.406737 0.913545 0
    outer loop
      vertex -9.73404 29.9583 0
      vertex -15.75 27.2798 25
      vertex -9.73404 29.9583 25
    endloop
  endfacet
  facet normal -0.587785 0.809017 0
    outer loop
      vertex -21.0776 23.4091 0
      vertex -21.0776 23.4091 25
      vertex -15.75 27.2798 0
    endloop
  endfacet
  facet normal -0.587785 0.809017 0
    outer loop
      vertex -15.75 27.2798 0
      vertex -21.0776 23.4091 25
      vertex -15.75 27.2798 25
    endloop
  endfacet
  facet normal -0.743145 0.669131 0
    outer loop
      vertex -25.484 18.5152 0
      vertex -25.484 18.5152 25
      vertex -21.0776 23.4091 0
    endloop
  endfacet
  facet normal -0.743145 0.669131 0
    outer loop
      vertex -21.0776 23.4091 0
      vertex -25.484 18.5152 25
      vertex -21.0776 23.4091 25
    endloop
  endfacet
  facet normal -0.866025 0.5 0
    outer loop
      vertex -28.7767 12.8122 0
      vertex -28.7767 12.8122 25
      vertex -25.484 18.5152 0
    endloop
  endfacet
  facet normal -0.866025 0.5 0
    outer loop
      vertex -25.484 18.5152 0
      vertex -28.7767 12.8122 25
      vertex -25.484 18.5152 25
    endloop
  endfacet
  facet normal -0.951057 0.309017 0
    outer loop
      vertex -30.8116 6.54922 0
      vertex -30.8116 6.54922 25
      vertex -28.7767 12.8122 0
    endloop
  endfacet
  facet normal -0.951057 0.309017 0
    outer loop
      vertex -28.7767 12.8122 0
      vertex -30.8116 6.54922 25
      vertex -28.7767 12.8122 25
    endloop
  endfacet
  facet normal 0.994522 0.104528 0
    outer loop
      vertex -29.5 0 25
      vertex -28.8554 -6.1334 25
      vertex -28.8554 -6.1334 0
    endloop
  endfacet
  facet normal 0.994522 0.104528 0
    outer loop
      vertex -29.5 0 0
      vertex -29.5 0 25
      vertex -28.8554 -6.1334 0
    endloop
  endfacet
  facet normal 0.994522 -0.104528 0
    outer loop
      vertex -28.8554 6.1334 0
      vertex -28.8554 6.1334 25
      vertex -29.5 0 25
    endloop
  endfacet
  facet normal 0.994522 -0.104528 0
    outer loop
      vertex -29.5 0 0
      vertex -28.8554 6.1334 0
      vertex -29.5 0 25
    endloop
  endfacet
  facet normal 0.951057 -0.309017 0
    outer loop
      vertex -26.9496 11.9987 0
      vertex -26.9496 11.9987 25
      vertex -28.8554 6.1334 25
    endloop
  endfacet
  facet normal 0.951057 -0.309017 0
    outer loop
      vertex -28.8554 6.1334 0
      vertex -26.9496 11.9987 0
      vertex -28.8554 6.1334 25
    endloop
  endfacet
  facet normal 0.866025 -0.5 0
    outer loop
      vertex -23.866 17.3397 0
      vertex -23.866 17.3397 25
      vertex -26.9496 11.9987 25
    endloop
  endfacet
  facet normal 0.866025 -0.5 0
    outer loop
      vertex -26.9496 11.9987 0
      vertex -23.866 17.3397 0
      vertex -26.9496 11.9987 25
    endloop
  endfacet
  facet normal 0.743145 -0.669131 0
    outer loop
      vertex -19.7394 21.9228 0
      vertex -19.7394 21.9228 25
      vertex -23.866 17.3397 25
    endloop
  endfacet
  facet normal 0.743145 -0.669131 0
    outer loop
      vertex -23.866 17.3397 0
      vertex -19.7394 21.9228 0
      vertex -23.866 17.3397 25
    endloop
  endfacet
  facet normal 0.587785 -0.809017 0
    outer loop
      vertex -14.75 25.5477 0
      vertex -14.75 25.5477 25
      vertex -19.7394 21.9228 25
    endloop
  endfacet
  facet normal 0.587785 -0.809017 0
    outer loop
      vertex -19.7394 21.9228 0
      vertex -14.75 25.5477 0
      vertex -19.7394 21.9228 25
    endloop
  endfacet
  facet normal 0.406737 -0.913545 0
    outer loop
      vertex -9.116 28.0562 0
      vertex -9.116 28.0562 25
      vertex -14.75 25.5477 25
    endloop
  endfacet
  facet normal 0.406737 -0.913545 0
    outer loop
      vertex -14.75 25.5477 0
      vertex -9.116 28.0562 0
      vertex -14.75 25.5477 25
    endloop
  endfacet
  facet normal 0.207912 -0.978148 0
    outer loop
      vertex -3.08359 29.3384 0
      vertex -3.08359 29.3384 25
      vertex -9.116 28.0562 25
    endloop
  endfacet
  facet normal 0.207912 -0.978148 0
    outer loop
      vertex -9.116 28.0562 0
      vertex -3.08359 29.3384 0
      vertex -9.116 28.0562 25
    endloop
  endfacet
  facet normal 0 -1 0
    outer loop
      vertex 3.08359 29.3384 0
      vertex 3.08359 29.3384 25
      vertex -3.08359 29.3384 25
    endloop
  endfacet
  facet normal 0 -1 0
    outer loop
      vertex -3.08359 29.3384 0
      vertex 3.08359 29.3384 0
      vertex -3.08359 29.3384 25
    endloop
  endfacet
  facet normal -0.207912 -0.978148 0
    outer loop
      vertex 9.116 28.0562 0
      vertex 9.116 28.0562 25
      vertex 3.08359 29.3384 25
    endloop
  endfacet
  facet normal -0.207912 -0.978148 0
    outer loop
      vertex 3.08359 29.3384 0
      vertex 9.116 28.0562 0
      vertex 3.08359 29.3384 25
    endloop
  endfacet
  facet normal -0.406737 -0.913545 0
    outer loop
      vertex 14.75 25.5477 0
      vertex 14.75 25.5477 25
      vertex 9.116 28.0562 25
    endloop
  endfacet
  facet normal -0.406737 -0.913545 0
    outer loop
      vertex 9.116 28.0562 0
      vertex 14.75 25.5477 0
      vertex 9.116 28.0562 25
    endloop
  endfacet
  facet normal -0.587785 -0.809017 0
    outer loop
      vertex 19.7394 21.9228 0
      vertex 19.7394 21.9228 25
      vertex 14.75 25.5477 25
    endloop
  endfacet
  facet normal -0.587785 -0.809017 0
    outer loop
      vertex 14.75 25.5477 0
      vertex 19.7394 21.9228 0
      vertex 14.75 25.5477 25
    endloop
  endfacet
  facet normal -0.743145 -0.669131 0
    outer loop
      vertex 23.866 17.3397 25
      vertex 19.7394 21.9228 25
      vertex 23.866 17.3397 0
    endloop
  endfacet
  facet normal -0.743145 -0.669131 0
    outer loop
      vertex 23.866 17.3397 0
      vertex 19.7394 21.9228 25
      vertex 19.7394 21.9228 0
    endloop
  endfacet
  facet normal -0.866025 -0.5 0
    outer loop
      vertex 26.9496 11.9987 25
      vertex 23.866 17.3397 25
      vertex 26.9496 11.9987 0
    endloop
  endfacet
  facet normal -0.866025 -0.5 0
    outer loop
      vertex 26.9496 11.9987 0
      vertex 23.866 17.3397 25
      vertex 23.866 17.3397 0
    endloop
  endfacet
  facet normal -0.951057 -0.309017 0
    outer loop
      vertex 28.8554 6.1334 25
      vertex 26.9496 11.9987 25
      vertex 28.8554 6.1334 0
    endloop
  endfacet
  facet normal -0.951057 -0.309017 0
    outer loop
      vertex 28.8554 6.1334 0
      vertex 26.9496 11.9987 25
      vertex 26.9496 11.9987 0
    endloop
  endfacet
  facet normal -0.994522 -0.104528 0
    outer loop
      vertex 29.5 0 25
      vertex 28.8554 6.1334 25
      vertex 29.5 0 0
    endloop
  endfacet
  facet normal -0.994522 -0.104528 0
    outer loop
      vertex 29.5 0 0
      vertex 28.8554 6.1334 25
      vertex 28.8554 6.1334 0
    endloop
  endfacet
  facet normal -0.994522 0.104528 0
    outer loop
      vertex 29.5 0 25
      vertex 29.5 0 0
      vertex 28.8554 -6.1334 25
    endloop
  endfacet
  facet normal -0.994522 0.104528 0
    outer loop
      vertex 28.8554 -6.1334 25
      vertex 29.5 0 0
      vertex 28.8554 -6.1334 0
    endloop
  endfacet
  facet normal -0.951057 0.309017 0
    outer loop
      vertex 28.8554 -6.1334 25
      vertex 28.8554 -6.1334 0
      vertex 26.9496 -11.9987 25
    endloop
  endfacet
  facet normal -0.951057 0.309017 0
    outer loop
      vertex 26.9496 -11.9987 25
      vertex 28.8554 -6.1334 0
      vertex 26.9496 -11.9987 0
    endloop
  endfacet
  facet normal -0.866025 0.5 0
    outer loop
      vertex 26.9496 -11.9987 25
      vertex 26.9496 -11.9987 0
      vertex 23.866 -17.3397 25
    endloop
  endfacet
  facet normal -0.866025 0.5 0
    outer loop
      vertex 23.866 -17.3397 25
      vertex 26.9496 -11.9987 0
      vertex 23.866 -17.3397 0
    endloop
  endfacet
  facet normal -0.743145 0.669131 0
    outer loop
      vertex 23.866 -17.3397 25
      vertex 23.866 -17.3397 0
      vertex 19.7394 -21.9228 25
    endloop
  endfacet
  facet normal -0.743145 0.669131 0
    outer loop
      vertex 19.7394 -21.9228 25
      vertex 23.866 -17.3397 0
      vertex 19.7394 -21.9228 0
    endloop
  endfacet
  facet normal -0.587785 0.809017 0
    outer loop
      vertex 19.7394 -21.9228 25
      vertex 19.7394 -21.9228 0
      vertex 14.75 -25.5477 25
    endloop
  endfacet
  facet normal -0.587785 0.809017 0
    outer loop
      vertex 14.75 -25.5477 25
      vertex 19.7394 -21.9228 0
      vertex 14.75 -25.5477 0
    endloop
  endfacet
  facet normal -0.406737 0.913545 0
    outer loop
      vertex 14.75 -25.5477 25
      vertex 14.75 -25.5477 0
      vertex 9.116 -28.0562 25
    endloop
  endfacet
  facet normal -0.406737 0.913545 0
    outer loop
      vertex 9.116 -28.0562 25
      vertex 14.75 -25.5477 0
      vertex 9.116 -28.0562 0
    endloop
  endfacet
  facet normal -0.207912 0.978148 0
    outer loop
      vertex 9.116 -28.0562 25
      vertex 9.116 -28.0562 0
      vertex 3.08359 -29.3384 25
    endloop
  endfacet
  facet normal -0.207912 0.978148 0
    outer loop
      vertex 3.08359 -29.3384 25
      vertex 9.116 -28.0562 0
      vertex 3.08359 -29.3384 0
    endloop
  endfacet
  facet normal 0 1 0
    outer loop
      vertex 3.08359 -29.3384 25
      vertex 3.08359 -29.3384 0
      vertex -3.08359 -29.3384 25
    endloop
  endfacet
  facet normal 0 1 0
    outer loop
      vertex -3.08359 -29.3384 25
      vertex 3.08359 -29.3384 0
      vertex -3.08359 -29.3384 0
    endloop
  endfacet
  facet normal 0.207912 0.978148 0
    outer loop
      vertex -3.08359 -29.3384 25
      vertex -3.08359 -29.3384 0
      vertex -9.116 -28.0562 25
    endloop
  endfacet
  facet normal 0.207912 0.978148 0
    outer loop
      vertex -9.116 -28.0562 25
      vertex -3.08359 -29.3384 0
      vertex -9.116 -28.0562 0
    endloop
  endfacet
  facet normal 0.406737 0.913545 0
    outer loop
      vertex -9.116 -28.0562 25
      vertex -9.116 -28.0562 0
      vertex -14.75 -25.5477 25
    endloop
  endfacet
  facet normal 0.406737 0.913545 0
    outer loop
      vertex -14.75 -25.5477 25
      vertex -9.116 -28.0562 0
      vertex -14.75 -25.5477 0
    endloop
  endfacet
  facet normal 0.587785 0.809017 0
    outer loop
      vertex -14.75 -25.5477 25
      vertex -14.75 -25.5477 0
      vertex -19.7394 -21.9228 25
    endloop
  endfacet
  facet normal 0.587785 0.809017 0
    outer loop
      vertex -19.7394 -21.9228 25
      vertex -14.75 -25.5477 0
      vertex -19.7394 -21.9228 0
    endloop
  endfacet
  facet normal 0.743145 0.669131 0
    outer loop
      vertex -23.866 -17.3397 25
      vertex -19.7394 -21.9228 25
      vertex -19.7394 -21.9228 0
    endloop
  endfacet
  facet normal 0.743145 0.669131 0
    outer loop
      vertex -23.866 -17.3397 0
      vertex -23.866 -17.3397 25
      vertex -19.7394 -21.9228 0
    endloop
  endfacet
  facet normal 0.866025 0.5 0
    outer loop
      vertex -26.9496 -11.9987 25
      vertex -23.866 -17.3397 25
      vertex -23.866 -17.3397 0
    endloop
  endfacet
  facet normal 0.866025 0.5 0
    outer loop
      vertex -26.9496 -11.9987 0
      vertex -26.9496 -11.9987 25
      vertex -23.866 -17.3397 0
    endloop
  endfacet
  facet normal 0.951057 0.309017 0
    outer loop
      vertex -28.8554 -6.1334 25
      vertex -26.9496 -11.9987 25
      vertex -26.9496 -11.9987 0
    endloop
  endfacet
  facet normal 0.951057 0.309017 0
    outer loop
      vertex -28.8554 -6.1334 0
      vertex -28.8554 -6.1334 25
      vertex -26.9496 -11.9987 0
    endloop
  endfacet
  facet normal 0 0 1
    outer loop
      vertex -30.8116 6.54922 25
      vertex -31.5 0 25
      vertex -30.8116 -6.54922 25
    endloop
  endfacet
  facet normal 0 0 1
    outer loop
      vertex -28.8554 -6.1334 25
      vertex -30.8116 6.54922 25
      vertex -28.7767 -12.8122 25
    endloop
  endfacet
  facet normal 0 0 1
    outer loop
      vertex -28.7767 -12.8122 25
      vertex -30.8116 6.54922 25
      vertex -30.8116 -6.54922 25
    endloop
  endfacet
  facet normal 0 0 1
    outer loop
      vertex -28.8554 6.1334 25
      vertex -26.9496 11.9987 25
      vertex -30.8116 6.54922 25
    endloop
  endfacet
  facet normal 0 0 1
    outer loop
      vertex -23.866 -17.3397 25
      vertex -26.9496 -11.9987 25
      vertex -25.484 -18.5152 25
    endloop
  endfacet
  facet normal 0 0 1
    outer loop
      vertex 26.9496 11.9987 25
      vertex 28.8554 6.1334 25
      vertex 30.8116 6.54922 25
    endloop
  endfacet
  facet normal 0 0 1
    outer loop
      vertex 23.866 17.3397 25
      vertex 26.9496 11.9987 25
      vertex 28.7767 12.8122 25
    endloop
  endfacet
  facet normal 0 0 1
    outer loop
      vertex 19.7394 21.9228 25
      vertex 23.866 17.3397 25
      vertex 25.484 18.5152 25
    endloop
  endfacet
  facet normal 0 0 1
    outer loop
      vertex 14.75 25.5477 25
      vertex 19.7394 21.9228 25
      vertex 21.0776 23.4091 25
    endloop
  endfacet
  facet normal 0 0 1
    outer loop
      vertex 9.116 28.0562 25
      vertex 14.75 25.5477 25
      vertex 15.75 27.2798 25
    endloop
  endfacet
  facet normal 0 0 1
    outer loop
      vertex 3.08359 29.3384 25
      vertex 9.116 28.0562 25
      vertex 9.73404 29.9583 25
    endloop
  endfacet
  facet normal 0 0 1
    outer loop
      vertex -3.08359 29.3384 25
      vertex 3.08359 29.3384 25
      vertex 3.29265 31.3274 25
    endloop
  endfacet
  facet normal 0 0 1
    outer loop
      vertex 28.8554 6.1334 25
      vertex 29.5 0 25
      vertex 31.5 0 25
    endloop
  endfacet
  facet normal 0 0 1
    outer loop
      vertex -25.484 18.5152 25
      vertex -30.8116 6.54922 25
      vertex -21.0776 23.4091 25
    endloop
  endfacet
  facet normal 0 0 1
    outer loop
      vertex -28.7767 12.8122 25
      vertex -30.8116 6.54922 25
      vertex -25.484 18.5152 25
    endloop
  endfacet
  facet normal 0 0 1
    outer loop
      vertex -25.484 -18.5152 25
      vertex -28.8554 -6.1334 25
      vertex -28.7767 -12.8122 25
    endloop
  endfacet
  facet normal 0 0 1
    outer loop
      vertex -29.5 0 25
      vertex -30.8116 6.54922 25
      vertex -28.8554 -6.1334 25
    endloop
  endfacet
  facet normal 0 0 1
    outer loop
      vertex 26.9496 -11.9987 25
      vertex 23.866 -17.3397 25
      vertex 28.7767 -12.8122 25
    endloop
  endfacet
  facet normal 0 0 1
    outer loop
      vertex -14.75 25.5477 25
      vertex -9.116 28.0562 25
      vertex -9.73404 29.9583 25
    endloop
  endfacet
  facet normal 0 0 1
    outer loop
      vertex -21.0776 23.4091 25
      vertex -30.8116 6.54922 25
      vertex -26.9496 11.9987 25
    endloop
  endfacet
  facet normal 0 0 1
    outer loop
      vertex -21.0776 23.4091 25
      vertex -23.866 17.3397 25
      vertex -15.75 27.2798 25
    endloop
  endfacet
  facet normal 0 0 1
    outer loop
      vertex -21.0776 23.4091 25
      vertex -26.9496 11.9987 25
      vertex -23.866 17.3397 25
    endloop
  endfacet
  facet normal 0 0 1
    outer loop
      vertex -23.866 17.3397 25
      vertex -19.7394 21.9228 25
      vertex -15.75 27.2798 25
    endloop
  endfacet
  facet normal 0 0 1
    outer loop
      vertex -15.75 27.2798 25
      vertex -14.75 25.5477 25
      vertex -9.73404 29.9583 25
    endloop
  endfacet
  facet normal 0 0 1
    outer loop
      vertex -19.7394 21.9228 25
      vertex -14.75 25.5477 25
      vertex -15.75 27.2798 25
    endloop
  endfacet
  facet normal 0 0 1
    outer loop
      vertex -9.73404 29.9583 25
      vertex -9.116 28.0562 25
      vertex -3.29265 31.3274 25
    endloop
  endfacet
  facet normal 0 0 1
    outer loop
      vertex -3.29265 31.3274 25
      vertex -3.08359 29.3384 25
      vertex 3.29265 31.3274 25
    endloop
  endfacet
  facet normal 0 0 1
    outer loop
      vertex 3.29265 31.3274 25
      vertex 3.08359 29.3384 25
      vertex 9.73404 29.9583 25
    endloop
  endfacet
  facet normal 0 0 1
    outer loop
      vertex 9.73404 29.9583 25
      vertex 9.116 28.0562 25
      vertex 15.75 27.2798 25
    endloop
  endfacet
  facet normal 0 0 1
    outer loop
      vertex 15.75 27.2798 25
      vertex 14.75 25.5477 25
      vertex 21.0776 23.4091 25
    endloop
  endfacet
  facet normal 0 0 1
    outer loop
      vertex 21.0776 23.4091 25
      vertex 19.7394 21.9228 25
      vertex 25.484 18.5152 25
    endloop
  endfacet
  facet normal 0 0 1
    outer loop
      vertex 25.484 18.5152 25
      vertex 23.866 17.3397 25
      vertex 28.7767 12.8122 25
    endloop
  endfacet
  facet normal 0 0 1
    outer loop
      vertex 28.7767 12.8122 25
      vertex 26.9496 11.9987 25
      vertex 30.8116 6.54922 25
    endloop
  endfacet
  facet normal 0 0 1
    outer loop
      vertex 30.8116 6.54922 25
      vertex 28.8554 6.1334 25
      vertex 31.5 0 25
    endloop
  endfacet
  facet normal 0 0 1
    outer loop
      vertex 31.5 0 25
      vertex 29.5 0 25
      vertex 30.8116 -6.54922 25
    endloop
  endfacet
  facet normal 0 0 1
    outer loop
      vertex 30.8116 -6.54922 25
      vertex 28.8554 -6.1334 25
      vertex 28.7767 -12.8122 25
    endloop
  endfacet
  facet normal 0 0 1
    outer loop
      vertex -9.116 28.0562 25
      vertex -3.08359 29.3384 25
      vertex -3.29265 31.3274 25
    endloop
  endfacet
  facet normal 0 0 1
    outer loop
      vertex 28.8554 -6.1334 25
      vertex 26.9496 -11.9987 25
      vertex 28.7767 -12.8122 25
    endloop
  endfacet
  facet normal 0 0 1
    outer loop
      vertex 28.7767 -12.8122 25
      vertex 23.866 -17.3397 25
      vertex 25.484 -18.5152 25
    endloop
  endfacet
  facet normal 0 0 1
    outer loop
      vertex 25.484 -18.5152 25
      vertex 19.7394 -21.9228 25
      vertex 21.0776 -23.4091 25
    endloop
  endfacet
  facet normal 0 0 1
    outer loop
      vertex 21.0776 -23.4091 25
      vertex 14.75 -25.5477 25
      vertex 15.75 -27.2798 25
    endloop
  endfacet
  facet normal 0 0 1
    outer loop
      vertex 15.75 -27.2798 25
      vertex 9.116 -28.0562 25
      vertex 9.73404 -29.9583 25
    endloop
  endfacet
  facet normal 0 0 1
    outer loop
      vertex 9.73404 -29.9583 25
      vertex 3.08359 -29.3384 25
      vertex 3.29265 -31.3274 25
    endloop
  endfacet
  facet normal 0 0 1
    outer loop
      vertex 3.29265 -31.3274 25
      vertex -3.08359 -29.3384 25
      vertex -3.29265 -31.3274 25
    endloop
  endfacet
  facet normal 0 0 1
    outer loop
      vertex -3.29265 -31.3274 25
      vertex -9.116 -28.0562 25
      vertex -9.73404 -29.9583 25
    endloop
  endfacet
  facet normal 0 0 1
    outer loop
      vertex -9.73404 -29.9583 25
      vertex -14.75 -25.5477 25
      vertex -15.75 -27.2798 25
    endloop
  endfacet
  facet normal 0 0 1
    outer loop
      vertex -15.75 -27.2798 25
      vertex -19.7394 -21.9228 25
      vertex -21.0776 -23.4091 25
    endloop
  endfacet
  facet normal 0 0 1
    outer loop
      vertex 29.5 0 25
      vertex 28.8554 -6.1334 25
      vertex 30.8116 -6.54922 25
    endloop
  endfacet
  facet normal 0 0 1
    outer loop
      vertex -21.0776 -23.4091 25
      vertex -23.866 -17.3397 25
      vertex -25.484 -18.5152 25
    endloop
  endfacet
  facet normal 0 0 1
    outer loop
      vertex -25.484 -18.5152 25
      vertex -26.9496 -11.9987 25
      vertex -28.8554 -6.1334 25
    endloop
  endfacet
  facet normal 0 0 1
    outer loop
      vertex 23.866 -17.3397 25
      vertex 19.7394 -21.9228 25
      vertex 25.484 -18.5152 25
    endloop
  endfacet
  facet normal 0 0 1
    outer loop
      vertex 19.7394 -21.9228 25
      vertex 14.75 -25.5477 25
      vertex 21.0776 -23.4091 25
    endloop
  endfacet
  facet normal 0 0 1
    outer loop
      vertex 14.75 -25.5477 25
      vertex 9.116 -28.0562 25
      vertex 15.75 -27.2798 25
    endloop
  endfacet
  facet normal 0 0 1
    outer loop
      vertex 9.116 -28.0562 25
      vertex 3.08359 -29.3384 25
      vertex 9.73404 -29.9583 25
    endloop
  endfacet
  facet normal 0 0 1
    outer loop
      vertex 3.08359 -29.3384 25
      vertex -3.08359 -29.3384 25
      vertex 3.29265 -31.3274 25
    endloop
  endfacet
  facet normal 0 0 1
    outer loop
      vertex -3.08359 -29.3384 25
      vertex -9.116 -28.0562 25
      vertex -3.29265 -31.3274 25
    endloop
  endfacet
  facet normal 0 0 1
    outer loop
      vertex -9.116 -28.0562 25
      vertex -14.75 -25.5477 25
      vertex -9.73404 -29.9583 25
    endloop
  endfacet
  facet normal 0 0 1
    outer loop
      vertex -14.75 -25.5477 25
      vertex -19.7394 -21.9228 25
      vertex -15.75 -27.2798 25
    endloop
  endfacet
  facet normal 0 0 1
    outer loop
      vertex -19.7394 -21.9228 25
      vertex -23.866 -17.3397 25
      vertex -21.0776 -23.4091 25
    endloop
  endfacet
  facet normal 0 0 1
    outer loop
      vertex -29.5 0 25
      vertex -28.8554 6.1334 25
      vertex -30.8116 6.54922 25
    endloop
  endfacet
endsolid OpenSCAD_Model
