solid OpenSCAD_Model
  facet normal -1.16467e-16 3.78424e-17 -1
    outer loop
      vertex -74.736 16.6788 9.33545e-15
      vertex -57.0634 18.541 7.34764e-15
      vertex -74.5859 14.7713 9.24578e-15
    endloop
  endfacet
  facet normal -1.16467e-16 3.78424e-17 -1
    outer loop
      vertex -80.4228 22.7835 1.02288e-14
      vertex -91.3014 29.6656 1.17562e-14
      vertex -57.0634 18.541 7.34764e-15
    endloop
  endfacet
  facet normal -1.16467e-16 3.78424e-17 -1
    outer loop
      vertex -85.94 12.1732 1.04698e-14
      vertex -68.188 -15.697 7.34764e-15
      vertex -87.6111 13.226 1.07043e-14
    endloop
  endfacet
  facet normal -1.16467e-16 3.78424e-17 -1
    outer loop
      vertex -95.7513 15.9704 1.17562e-14
      vertex -91.3014 29.6656 1.17562e-14
      vertex -89.5546 18.5965 1.11339e-14
    endloop
  endfacet
  facet normal -1.16467e-16 3.78424e-17 -1
    outer loop
      vertex -88.9443 20.475 1.11339e-14
      vertex -91.3014 29.6656 1.17562e-14
      vertex -87.7571 22.0535 1.10554e-14
    endloop
  endfacet
  facet normal -1.16467e-16 3.78424e-17 -1
    outer loop
      vertex -95.7513 15.9704 1.17562e-14
      vertex -89.5546 18.5965 1.11339e-14
      vertex -89.522 16.6217 1.10554e-14
    endloop
  endfacet
  facet normal -1.16467e-16 3.78424e-17 -1
    outer loop
      vertex -95.7513 15.9704 1.17562e-14
      vertex -89.522 16.6217 1.10554e-14
      vertex -88.8499 14.7644 1.09068e-14
    endloop
  endfacet
  facet normal -1.16467e-16 3.78424e-17 -1
    outer loop
      vertex -95.7513 15.9704 1.17562e-14
      vertex -88.8499 14.7644 1.09068e-14
      vertex -68.188 -15.697 7.34764e-15
    endloop
  endfacet
  facet normal -1.16467e-16 3.78424e-17 -1
    outer loop
      vertex -88.8499 14.7644 1.09068e-14
      vertex -87.6111 13.226 1.07043e-14
      vertex -68.188 -15.697 7.34764e-15
    endloop
  endfacet
  facet normal -1.16467e-16 3.78424e-17 -1
    outer loop
      vertex -84.0175 11.7201 1.02288e-14
      vertex -68.188 -15.697 7.34764e-15
      vertex -85.94 12.1732 1.04698e-14
    endloop
  endfacet
  facet normal -1.16467e-16 3.78424e-17 -1
    outer loop
      vertex -82.0521 11.9157 1.00073e-14
      vertex -68.188 -15.697 7.34764e-15
      vertex -84.0175 11.7201 1.02288e-14
    endloop
  endfacet
  facet normal -1.16467e-16 3.78424e-17 -1
    outer loop
      vertex -77.7361 13.1662 9.55193e-15
      vertex -80.2567 12.7389 9.82932e-15
      vertex -78.8278 14.0986 9.71436e-15
    endloop
  endfacet
  facet normal -1.16467e-16 3.78424e-17 -1
    outer loop
      vertex -74.5859 14.7713 9.24578e-15
      vertex -57.0634 18.541 7.34764e-15
      vertex -75.8286 13.3163 9.33545e-15
    endloop
  endfacet
  facet normal -1.16467e-16 3.78424e-17 -1
    outer loop
      vertex -75.8286 13.3163 9.33545e-15
      vertex -82.0521 11.9157 1.00073e-14
      vertex -77.7361 13.1662 9.55193e-15
    endloop
  endfacet
  facet normal -1.16467e-16 3.78424e-17 -1
    outer loop
      vertex -87.7571 22.0535 1.10554e-14
      vertex -91.3014 29.6656 1.17562e-14
      vertex -86.1216 23.161 1.09068e-14
    endloop
  endfacet
  facet normal -1.16467e-16 3.78424e-17 -1
    outer loop
      vertex -82.0521 11.9157 1.00073e-14
      vertex -80.2567 12.7389 9.82932e-15
      vertex -77.7361 13.1662 9.55193e-15
    endloop
  endfacet
  facet normal -1.16467e-16 3.78424e-17 -1
    outer loop
      vertex -68.188 -15.697 7.34764e-15
      vertex -82.0521 11.9157 1.00073e-14
      vertex -75.8286 13.3163 9.33545e-15
    endloop
  endfacet
  facet normal -1.16467e-16 3.78424e-17 -1
    outer loop
      vertex -68.188 -15.697 7.34764e-15
      vertex -75.8286 13.3163 9.33545e-15
      vertex -57.0634 18.541 7.34764e-15
    endloop
  endfacet
  facet normal -1.16467e-16 3.78424e-17 -1
    outer loop
      vertex -86.1216 23.161 1.09068e-14
      vertex -91.3014 29.6656 1.17562e-14
      vertex -84.2152 23.6774 1.07043e-14
    endloop
  endfacet
  facet normal -1.16467e-16 3.78424e-17 -1
    outer loop
      vertex -74.736 16.6788 9.33545e-15
      vertex -76.191 17.9215 9.55193e-15
      vertex -57.0634 18.541 7.34764e-15
    endloop
  endfacet
  facet normal -1.16467e-16 3.78424e-17 -1
    outer loop
      vertex -82.2444 23.5469 1.04698e-14
      vertex -91.3014 29.6656 1.17562e-14
      vertex -80.4228 22.7835 1.02288e-14
    endloop
  endfacet
  facet normal -1.16467e-16 3.78424e-17 -1
    outer loop
      vertex -76.191 17.9215 9.55193e-15
      vertex -77.979 19.7487 9.82932e-15
      vertex -57.0634 18.541 7.34764e-15
    endloop
  endfacet
  facet normal -1.16467e-16 3.78424e-17 -1
    outer loop
      vertex -84.2152 23.6774 1.07043e-14
      vertex -91.3014 29.6656 1.17562e-14
      vertex -82.2444 23.5469 1.04698e-14
    endloop
  endfacet
  facet normal -1.16467e-16 3.78424e-17 -1
    outer loop
      vertex -77.979 19.7487 9.82932e-15
      vertex -78.9477 21.47 1.00073e-14
      vertex -57.0634 18.541 7.34764e-15
    endloop
  endfacet
  facet normal -1.16467e-16 3.78424e-17 -1
    outer loop
      vertex -78.9477 21.47 1.00073e-14
      vertex -80.4228 22.7835 1.02288e-14
      vertex -57.0634 18.541 7.34764e-15
    endloop
  endfacet
  facet normal -1.16467e-16 3.78424e-17 -1
    outer loop
      vertex -77.979 19.7487 9.82932e-15
      vertex -76.191 17.9215 9.55193e-15
      vertex -77.6223 17.8088 9.71436e-15
    endloop
  endfacet
  facet normal -1.16467e-16 3.78424e-17 -1
    outer loop
      vertex -89.5546 18.5965 1.11339e-14
      vertex -91.3014 29.6656 1.17562e-14
      vertex -88.9443 20.475 1.11339e-14
    endloop
  endfacet
  facet normal -0.951057 0.309017 0
    outer loop
      vertex -91.3014 29.6656 3
      vertex -91.3014 29.6656 1.17562e-14
      vertex -95.7513 15.9704 3
    endloop
  endfacet
  facet normal -0.951057 0.309017 0
    outer loop
      vertex -95.7513 15.9704 3
      vertex -91.3014 29.6656 1.17562e-14
      vertex -95.7513 15.9704 1.17562e-14
    endloop
  endfacet
  facet normal -0.754294 -0.656536 6.30055e-17
    outer loop
      vertex -95.7513 15.9704 1.17562e-14
      vertex -68.188 -15.697 7.34764e-15
      vertex -95.7513 15.9704 3
    endloop
  endfacet
  facet normal -0.754294 -0.656536 6.30055e-17
    outer loop
      vertex -95.7513 15.9704 3
      vertex -68.188 -15.697 7.34764e-15
      vertex -68.188 -15.697 3
    endloop
  endfacet
  facet normal -0.951057 0.309017 0
    outer loop
      vertex -57.0634 18.541 7.34764e-15
      vertex -57.0634 18.541 0
      vertex -68.188 -15.697 7.34764e-15
    endloop
  endfacet
  facet normal -0.951057 0.309017 0
    outer loop
      vertex -69.7331 -20.4523 0
      vertex -69.7331 -20.4523 3
      vertex -68.188 -15.697 7.34764e-15
    endloop
  endfacet
  facet normal -0.951057 0.309017 0
    outer loop
      vertex -69.7331 -20.4523 0
      vertex -68.188 -15.697 7.34764e-15
      vertex -57.0634 18.541 0
    endloop
  endfacet
  facet normal -0.951057 0.309017 0
    outer loop
      vertex -68.188 -15.697 7.34764e-15
      vertex -69.7331 -20.4523 3
      vertex -68.188 -15.697 3
    endloop
  endfacet
  facet normal 0.309017 0.951057 0
    outer loop
      vertex -57.0634 18.541 0
      vertex -57.0634 18.541 7.34764e-15
      vertex -56.994 18.5185 0
    endloop
  endfacet
  facet normal 0.309017 0.951057 0
    outer loop
      vertex -56.994 18.5185 0
      vertex -57.0634 18.541 7.34764e-15
      vertex -57.0634 18.541 3
    endloop
  endfacet
  facet normal 0.309017 0.951057 0
    outer loop
      vertex -56.994 18.5185 0
      vertex -57.0634 18.541 3
      vertex -56.994 18.5185 3
    endloop
  endfacet
  facet normal 0.309017 0.951057 -1.88491e-33
    outer loop
      vertex -91.3014 29.6656 1.17562e-14
      vertex -91.3014 29.6656 3
      vertex -57.0634 18.541 7.34764e-15
    endloop
  endfacet
  facet normal 0.309017 0.951057 -1.88491e-33
    outer loop
      vertex -57.0634 18.541 7.34764e-15
      vertex -91.3014 29.6656 3
      vertex -57.0634 18.541 3
    endloop
  endfacet
  facet normal 0.999863 0.0165339 0
    outer loop
      vertex -89.5546 18.5965 3
      vertex -89.522 16.6217 3
      vertex -89.522 16.6217 1.10554e-14
    endloop
  endfacet
  facet normal 0.999863 0.0165339 0
    outer loop
      vertex -89.5546 18.5965 1.11339e-14
      vertex -89.5546 18.5965 3
      vertex -89.522 16.6217 1.10554e-14
    endloop
  endfacet
  facet normal 0.951057 -0.309017 0
    outer loop
      vertex -88.9443 20.475 1.11339e-14
      vertex -88.9443 20.475 3
      vertex -89.5546 18.5965 3
    endloop
  endfacet
  facet normal 0.951057 -0.309017 0
    outer loop
      vertex -89.5546 18.5965 1.11339e-14
      vertex -88.9443 20.475 1.11339e-14
      vertex -89.5546 18.5965 3
    endloop
  endfacet
  facet normal 0.799188 -0.601081 0
    outer loop
      vertex -87.7571 22.0535 1.10554e-14
      vertex -87.7571 22.0535 3
      vertex -88.9443 20.475 3
    endloop
  endfacet
  facet normal 0.799188 -0.601081 0
    outer loop
      vertex -88.9443 20.475 1.11339e-14
      vertex -87.7571 22.0535 1.10554e-14
      vertex -88.9443 20.475 3
    endloop
  endfacet
  facet normal 0.560715 -0.828009 0
    outer loop
      vertex -86.1216 23.161 1.09068e-14
      vertex -86.1216 23.161 3
      vertex -87.7571 22.0535 3
    endloop
  endfacet
  facet normal 0.560715 -0.828009 0
    outer loop
      vertex -87.7571 22.0535 1.10554e-14
      vertex -86.1216 23.161 1.09068e-14
      vertex -87.7571 22.0535 3
    endloop
  endfacet
  facet normal 0.26148 -0.965209 0
    outer loop
      vertex -84.2152 23.6774 1.07043e-14
      vertex -84.2152 23.6774 3
      vertex -86.1216 23.161 3
    endloop
  endfacet
  facet normal 0.26148 -0.965209 0
    outer loop
      vertex -86.1216 23.161 1.09068e-14
      vertex -84.2152 23.6774 1.07043e-14
      vertex -86.1216 23.161 3
    endloop
  endfacet
  facet normal -0.0660906 -0.997814 0
    outer loop
      vertex -82.2444 23.5469 1.04698e-14
      vertex -82.2444 23.5469 3
      vertex -84.2152 23.6774 3
    endloop
  endfacet
  facet normal -0.0660906 -0.997814 0
    outer loop
      vertex -84.2152 23.6774 1.07043e-14
      vertex -82.2444 23.5469 1.04698e-14
      vertex -84.2152 23.6774 3
    endloop
  endfacet
  facet normal -0.386499 -0.92229 0
    outer loop
      vertex -80.4228 22.7835 1.02288e-14
      vertex -80.4228 22.7835 3
      vertex -82.2444 23.5469 3
    endloop
  endfacet
  facet normal -0.386499 -0.92229 0
    outer loop
      vertex -82.2444 23.5469 1.04698e-14
      vertex -80.4228 22.7835 1.02288e-14
      vertex -82.2444 23.5469 3
    endloop
  endfacet
  facet normal -0.665025 -0.746821 0
    outer loop
      vertex -78.9477 21.47 1.00073e-14
      vertex -78.9477 21.47 3
      vertex -80.4228 22.7835 3
    endloop
  endfacet
  facet normal -0.665025 -0.746821 0
    outer loop
      vertex -80.4228 22.7835 1.02288e-14
      vertex -78.9477 21.47 1.00073e-14
      vertex -80.4228 22.7835 3
    endloop
  endfacet
  facet normal -0.871484 -0.490423 0
    outer loop
      vertex -77.979 19.7487 3
      vertex -78.9477 21.47 3
      vertex -77.979 19.7487 9.82932e-15
    endloop
  endfacet
  facet normal -0.871484 -0.490423 0
    outer loop
      vertex -77.979 19.7487 9.82932e-15
      vertex -78.9477 21.47 3
      vertex -78.9477 21.47 1.00073e-14
    endloop
  endfacet
  facet normal -0.983505 -0.18088 0
    outer loop
      vertex -77.6223 17.8088 3
      vertex -77.979 19.7487 3
      vertex -77.6223 17.8088 9.71436e-15
    endloop
  endfacet
  facet normal -0.983505 -0.18088 0
    outer loop
      vertex -77.6223 17.8088 9.71436e-15
      vertex -77.979 19.7487 3
      vertex -77.979 19.7487 9.82932e-15
    endloop
  endfacet
  facet normal 0.0784591 -0.996917 0
    outer loop
      vertex -76.191 17.9215 9.55193e-15
      vertex -76.191 17.9215 3
      vertex -77.6223 17.8088 3
    endloop
  endfacet
  facet normal 0.0784591 -0.996917 0
    outer loop
      vertex -77.6223 17.8088 9.71436e-15
      vertex -76.191 17.9215 9.55193e-15
      vertex -77.6223 17.8088 3
    endloop
  endfacet
  facet normal -0.649448 -0.760406 0
    outer loop
      vertex -74.736 16.6788 9.33545e-15
      vertex -74.736 16.6788 3
      vertex -76.191 17.9215 3
    endloop
  endfacet
  facet normal -0.649448 -0.760406 0
    outer loop
      vertex -76.191 17.9215 9.55193e-15
      vertex -74.736 16.6788 9.33545e-15
      vertex -76.191 17.9215 3
    endloop
  endfacet
  facet normal -0.996917 -0.0784591 0
    outer loop
      vertex -74.5859 14.7713 3
      vertex -74.736 16.6788 3
      vertex -74.5859 14.7713 9.24578e-15
    endloop
  endfacet
  facet normal -0.996917 -0.0784591 0
    outer loop
      vertex -74.5859 14.7713 9.24578e-15
      vertex -74.736 16.6788 3
      vertex -74.736 16.6788 9.33545e-15
    endloop
  endfacet
  facet normal -0.760406 0.649448 0
    outer loop
      vertex -74.5859 14.7713 3
      vertex -74.5859 14.7713 9.24578e-15
      vertex -75.8286 13.3163 3
    endloop
  endfacet
  facet normal -0.760406 0.649448 0
    outer loop
      vertex -75.8286 13.3163 3
      vertex -74.5859 14.7713 9.24578e-15
      vertex -75.8286 13.3163 9.33545e-15
    endloop
  endfacet
  facet normal -0.0784591 0.996917 0
    outer loop
      vertex -75.8286 13.3163 3
      vertex -75.8286 13.3163 9.33545e-15
      vertex -77.7361 13.1662 3
    endloop
  endfacet
  facet normal -0.0784591 0.996917 0
    outer loop
      vertex -77.7361 13.1662 3
      vertex -75.8286 13.3163 9.33545e-15
      vertex -77.7361 13.1662 9.55193e-15
    endloop
  endfacet
  facet normal 0.649448 0.760406 0
    outer loop
      vertex -77.7361 13.1662 3
      vertex -77.7361 13.1662 9.55193e-15
      vertex -78.8278 14.0986 3
    endloop
  endfacet
  facet normal 0.649448 0.760406 0
    outer loop
      vertex -78.8278 14.0986 3
      vertex -77.7361 13.1662 9.55193e-15
      vertex -78.8278 14.0986 9.71436e-15
    endloop
  endfacet
  facet normal -0.689353 0.724425 0
    outer loop
      vertex -78.8278 14.0986 3
      vertex -78.8278 14.0986 9.71436e-15
      vertex -80.2567 12.7389 3
    endloop
  endfacet
  facet normal -0.689353 0.724425 0
    outer loop
      vertex -80.2567 12.7389 3
      vertex -78.8278 14.0986 9.71436e-15
      vertex -80.2567 12.7389 9.82932e-15
    endloop
  endfacet
  facet normal -0.416782 0.909006 0
    outer loop
      vertex -80.2567 12.7389 3
      vertex -80.2567 12.7389 9.82932e-15
      vertex -82.0521 11.9157 3
    endloop
  endfacet
  facet normal -0.416782 0.909006 0
    outer loop
      vertex -82.0521 11.9157 3
      vertex -80.2567 12.7389 9.82932e-15
      vertex -82.0521 11.9157 1.00073e-14
    endloop
  endfacet
  facet normal -0.0990457 0.995083 0
    outer loop
      vertex -82.0521 11.9157 3
      vertex -82.0521 11.9157 1.00073e-14
      vertex -84.0175 11.7201 3
    endloop
  endfacet
  facet normal -0.0990457 0.995083 0
    outer loop
      vertex -84.0175 11.7201 3
      vertex -82.0521 11.9157 1.00073e-14
      vertex -84.0175 11.7201 1.02288e-14
    endloop
  endfacet
  facet normal 0.229424 0.973327 0
    outer loop
      vertex -84.0175 11.7201 3
      vertex -84.0175 11.7201 1.02288e-14
      vertex -85.94 12.1732 3
    endloop
  endfacet
  facet normal 0.229424 0.973327 0
    outer loop
      vertex -85.94 12.1732 3
      vertex -84.0175 11.7201 1.02288e-14
      vertex -85.94 12.1732 1.04698e-14
    endloop
  endfacet
  facet normal 0.533032 0.846095 0
    outer loop
      vertex -85.94 12.1732 3
      vertex -85.94 12.1732 1.04698e-14
      vertex -87.6111 13.226 3
    endloop
  endfacet
  facet normal 0.533032 0.846095 0
    outer loop
      vertex -87.6111 13.226 3
      vertex -85.94 12.1732 1.04698e-14
      vertex -87.6111 13.226 1.07043e-14
    endloop
  endfacet
  facet normal 0.778878 0.627176 0
    outer loop
      vertex -88.8499 14.7644 3
      vertex -87.6111 13.226 3
      vertex -87.6111 13.226 1.07043e-14
    endloop
  endfacet
  facet normal 0.778878 0.627176 0
    outer loop
      vertex -88.8499 14.7644 1.09068e-14
      vertex -88.8499 14.7644 3
      vertex -87.6111 13.226 1.07043e-14
    endloop
  endfacet
  facet normal 0.940319 0.340294 0
    outer loop
      vertex -89.522 16.6217 3
      vertex -88.8499 14.7644 3
      vertex -88.8499 14.7644 1.09068e-14
    endloop
  endfacet
  facet normal 0.940319 0.340294 0
    outer loop
      vertex -89.522 16.6217 1.10554e-14
      vertex -89.522 16.6217 3
      vertex -88.8499 14.7644 1.09068e-14
    endloop
  endfacet
  facet normal 1.16467e-16 -3.78424e-17 1
    outer loop
      vertex -87.6111 13.226 3
      vertex -95.7513 15.9704 3
      vertex -68.188 -15.697 3
    endloop
  endfacet
  facet normal 1.16467e-16 -3.78424e-17 1
    outer loop
      vertex -82.2444 23.5469 3
      vertex -80.4228 22.7835 3
      vertex -57.0634 18.541 3
    endloop
  endfacet
  facet normal 1.16467e-16 -3.78424e-17 1
    outer loop
      vertex -91.3014 29.6656 3
      vertex -95.7513 15.9704 3
      vertex -89.522 16.6217 3
    endloop
  endfacet
  facet normal 1.16467e-16 -3.78424e-17 1
    outer loop
      vertex -85.94 12.1732 3
      vertex -87.6111 13.226 3
      vertex -68.188 -15.697 3
    endloop
  endfacet
  facet normal 1.16467e-16 -3.78424e-17 1
    outer loop
      vertex -91.3014 29.6656 3
      vertex -89.522 16.6217 3
      vertex -89.5546 18.5965 3
    endloop
  endfacet
  facet normal 1.16467e-16 -3.78424e-17 1
    outer loop
      vertex -84.0175 11.7201 3
      vertex -85.94 12.1732 3
      vertex -68.188 -15.697 3
    endloop
  endfacet
  facet normal 1.16467e-16 -3.78424e-17 1
    outer loop
      vertex -91.3014 29.6656 3
      vertex -89.5546 18.5965 3
      vertex -88.9443 20.475 3
    endloop
  endfacet
  facet normal 1.16467e-16 -3.78424e-17 1
    outer loop
      vertex -77.6223 17.8088 3
      vertex -76.191 17.9215 3
      vertex -77.979 19.7487 3
    endloop
  endfacet
  facet normal 1.16467e-16 -3.78424e-17 1
    outer loop
      vertex -91.3014 29.6656 3
      vertex -88.9443 20.475 3
      vertex -87.7571 22.0535 3
    endloop
  endfacet
  facet normal 1.16467e-16 -3.78424e-17 1
    outer loop
      vertex -84.2152 23.6774 3
      vertex -91.3014 29.6656 3
      vertex -86.1216 23.161 3
    endloop
  endfacet
  facet normal 1.16467e-16 -3.78424e-17 1
    outer loop
      vertex -82.2444 23.5469 3
      vertex -91.3014 29.6656 3
      vertex -84.2152 23.6774 3
    endloop
  endfacet
  facet normal 1.16467e-16 -3.78424e-17 1
    outer loop
      vertex -80.4228 22.7835 3
      vertex -78.9477 21.47 3
      vertex -57.0634 18.541 3
    endloop
  endfacet
  facet normal 1.16467e-16 -3.78424e-17 1
    outer loop
      vertex -57.0634 18.541 3
      vertex -91.3014 29.6656 3
      vertex -82.2444 23.5469 3
    endloop
  endfacet
  facet normal 1.16467e-16 -3.78424e-17 1
    outer loop
      vertex -80.2567 12.7389 3
      vertex -82.0521 11.9157 3
      vertex -68.188 -15.697 3
    endloop
  endfacet
  facet normal 1.16467e-16 -3.78424e-17 1
    outer loop
      vertex -82.0521 11.9157 3
      vertex -84.0175 11.7201 3
      vertex -68.188 -15.697 3
    endloop
  endfacet
  facet normal 1.16467e-16 -3.78424e-17 1
    outer loop
      vertex -74.5859 14.7713 3
      vertex -75.8286 13.3163 3
      vertex -68.188 -15.697 3
    endloop
  endfacet
  facet normal 1.16467e-16 -3.78424e-17 1
    outer loop
      vertex -57.0634 18.541 3
      vertex -78.9477 21.47 3
      vertex -77.979 19.7487 3
    endloop
  endfacet
  facet normal 1.16467e-16 -3.78424e-17 1
    outer loop
      vertex -75.8286 13.3163 3
      vertex -77.7361 13.1662 3
      vertex -68.188 -15.697 3
    endloop
  endfacet
  facet normal 1.16467e-16 -3.78424e-17 1
    outer loop
      vertex -57.0634 18.541 3
      vertex -77.979 19.7487 3
      vertex -76.191 17.9215 3
    endloop
  endfacet
  facet normal 1.16467e-16 -3.78424e-17 1
    outer loop
      vertex -57.0634 18.541 3
      vertex -74.736 16.6788 3
      vertex -68.188 -15.697 3
    endloop
  endfacet
  facet normal 1.16467e-16 -3.78424e-17 1
    outer loop
      vertex -57.0634 18.541 3
      vertex -76.191 17.9215 3
      vertex -74.736 16.6788 3
    endloop
  endfacet
  facet normal 1.16467e-16 -3.78424e-17 1
    outer loop
      vertex -74.736 16.6788 3
      vertex -74.5859 14.7713 3
      vertex -68.188 -15.697 3
    endloop
  endfacet
  facet normal 1.16467e-16 -3.78424e-17 1
    outer loop
      vertex -77.7361 13.1662 3
      vertex -78.8278 14.0986 3
      vertex -68.188 -15.697 3
    endloop
  endfacet
  facet normal 1.16467e-16 -3.78424e-17 1
    outer loop
      vertex -78.8278 14.0986 3
      vertex -80.2567 12.7389 3
      vertex -68.188 -15.697 3
    endloop
  endfacet
  facet normal 1.16467e-16 -3.78424e-17 1
    outer loop
      vertex -88.8499 14.7644 3
      vertex -95.7513 15.9704 3
      vertex -87.6111 13.226 3
    endloop
  endfacet
  facet normal 1.16467e-16 -3.78424e-17 1
    outer loop
      vertex -89.522 16.6217 3
      vertex -95.7513 15.9704 3
      vertex -88.8499 14.7644 3
    endloop
  endfacet
  facet normal 1.16467e-16 -3.78424e-17 1
    outer loop
      vertex -87.7571 22.0535 3
      vertex -86.1216 23.161 3
      vertex -91.3014 29.6656 3
    endloop
  endfacet
  facet normal 0 0 1
    outer loop
      vertex -68.188 -15.697 3
      vertex -69.7331 -20.4523 3
      vertex -69.3901 -20.5638 3
    endloop
  endfacet
  facet normal 0 0 1
    outer loop
      vertex -68.4761 -17.7508 3
      vertex -68.188 -15.697 3
      vertex -69.3901 -20.5638 3
    endloop
  endfacet
  facet normal 0 0 1
    outer loop
      vertex -53.623 -22.5768 3
      vertex -68.188 -15.697 3
      vertex -68.4761 -17.7508 3
    endloop
  endfacet
  facet normal 0 0 1
    outer loop
      vertex -57.0634 18.541 3
      vertex -57.0394 18.3788 3
      vertex -56.994 18.5185 3
    endloop
  endfacet
  facet normal 0 0 1
    outer loop
      vertex -57.0394 18.3788 3
      vertex -34.7242 7.38087 3
      vertex -33.6229 10.7704 3
    endloop
  endfacet
  facet normal 0 0 1
    outer loop
      vertex -57.0394 18.3788 3
      vertex -35.5 0 3
      vertex -34.7242 7.38087 3
    endloop
  endfacet
  facet normal 0 0 1
    outer loop
      vertex -57.0394 18.3788 3
      vertex -34.7242 -7.38087 3
      vertex -35.5 0 3
    endloop
  endfacet
  facet normal 0 0 1
    outer loop
      vertex -57.0394 18.3788 3
      vertex -32.9852 -12.7331 3
      vertex -34.7242 -7.38087 3
    endloop
  endfacet
  facet normal 0 0 1
    outer loop
      vertex -57.0394 18.3788 3
      vertex -53.623 -22.5768 3
      vertex -32.9852 -12.7331 3
    endloop
  endfacet
  facet normal 0 0 1
    outer loop
      vertex -57.0634 18.541 3
      vertex -53.623 -22.5768 3
      vertex -57.0394 18.3788 3
    endloop
  endfacet
  facet normal 0 0 1
    outer loop
      vertex -57.0634 18.541 3
      vertex -68.188 -15.697 3
      vertex -53.623 -22.5768 3
    endloop
  endfacet
  facet normal 0 0 -1
    outer loop
      vertex -69.7331 -20.4523 0
      vertex -57.0634 18.541 0
      vertex -50.3689 -26.7441 0
    endloop
  endfacet
  facet normal 0 0 -1
    outer loop
      vertex -50.3689 -26.7441 0
      vertex -57.0634 18.541 0
      vertex -56.994 18.5185 0
    endloop
  endfacet
  facet normal 0 0 -1
    outer loop
      vertex -50.3689 -26.7441 0
      vertex -56.994 18.5185 0
      vertex -56.1123 21.232 0
    endloop
  endfacet
  facet normal 0 0 -1
    outer loop
      vertex -49.4781 -23.9236 0
      vertex -56.1123 21.232 0
      vertex -32.6959 13.6235 0
    endloop
  endfacet
  facet normal 0 0 -1
    outer loop
      vertex -50.3689 -26.7441 0
      vertex -56.1123 21.232 0
      vertex -49.4781 -23.9236 0
    endloop
  endfacet
  facet normal 0 0 -1
    outer loop
      vertex -50.3689 -26.7441 0
      vertex -49.4781 -23.9236 0
      vertex -49.4549 -23.9311 0
    endloop
  endfacet
  facet normal 0 0 -1
    outer loop
      vertex -49.4781 -23.9236 0
      vertex -32.6959 13.6235 0
      vertex -34.7242 7.38087 0
    endloop
  endfacet
  facet normal 0 0 -1
    outer loop
      vertex -49.4781 -23.9236 0
      vertex -34.7242 7.38087 0
      vertex -35.5 0 0
    endloop
  endfacet
  facet normal 0 0 -1
    outer loop
      vertex -49.4781 -23.9236 0
      vertex -35.5 0 0
      vertex -34.7242 -7.38087 0
    endloop
  endfacet
  facet normal 0 0 -1
    outer loop
      vertex -49.4781 -23.9236 0
      vertex -34.7242 -7.38087 0
      vertex -32.4309 -14.4392 0
    endloop
  endfacet
  facet normal 0 0 -1
    outer loop
      vertex -49.4781 -23.9236 0
      vertex -32.4309 -14.4392 0
      vertex -31.8182 -15.5003 0
    endloop
  endfacet
  facet normal -0.309017 -0.951057 0
    outer loop
      vertex -50.3689 -26.7441 0
      vertex -50.3689 -26.7441 10
      vertex -69.3901 -20.5638 10
    endloop
  endfacet
  facet normal -0.309017 -0.951057 0
    outer loop
      vertex -69.7331 -20.4523 3
      vertex -50.3689 -26.7441 0
      vertex -69.3901 -20.5638 3
    endloop
  endfacet
  facet normal -0.309017 -0.951057 0
    outer loop
      vertex -69.3901 -20.5638 3
      vertex -50.3689 -26.7441 0
      vertex -69.3901 -20.5638 10
    endloop
  endfacet
  facet normal -0.309017 -0.951057 0
    outer loop
      vertex -69.7331 -20.4523 0
      vertex -50.3689 -26.7441 0
      vertex -69.7331 -20.4523 3
    endloop
  endfacet
  facet normal -0.951057 0.309017 0
    outer loop
      vertex -57.0394 18.3788 3
      vertex -57.0394 18.3788 10
      vertex -56.994 18.5185 3
    endloop
  endfacet
  facet normal -0.951057 0.309017 0
    outer loop
      vertex -56.994 18.5185 3
      vertex -57.0394 18.3788 10
      vertex -56.1123 21.232 10
    endloop
  endfacet
  facet normal -0.951057 0.309017 0
    outer loop
      vertex -56.994 18.5185 3
      vertex -56.1123 21.232 10
      vertex -56.1123 21.232 0
    endloop
  endfacet
  facet normal -0.951057 0.309017 0
    outer loop
      vertex -56.994 18.5185 3
      vertex -56.1123 21.232 0
      vertex -56.994 18.5185 0
    endloop
  endfacet
  facet normal -0.309017 -0.951057 0
    outer loop
      vertex -57.0394 18.3788 10
      vertex -57.0394 18.3788 3
      vertex -33.6229 10.7704 3
    endloop
  endfacet
  facet normal -0.309017 -0.951057 0
    outer loop
      vertex -33.6229 10.7704 10
      vertex -57.0394 18.3788 10
      vertex -33.6229 10.7704 3
    endloop
  endfacet
  facet normal 0.951057 -0.309017 0
    outer loop
      vertex -32.6959 13.6235 0
      vertex -32.6959 13.6235 10
      vertex -33.6229 10.7704 10
    endloop
  endfacet
  facet normal 0.951057 -0.309017 0
    outer loop
      vertex -34.7242 7.38087 3
      vertex -32.6959 13.6235 0
      vertex -33.6229 10.7704 3
    endloop
  endfacet
  facet normal 0.951057 -0.309017 0
    outer loop
      vertex -33.6229 10.7704 3
      vertex -32.6959 13.6235 0
      vertex -33.6229 10.7704 10
    endloop
  endfacet
  facet normal 0.951057 -0.309017 0
    outer loop
      vertex -34.7242 7.38087 0
      vertex -32.6959 13.6235 0
      vertex -34.7242 7.38087 3
    endloop
  endfacet
  facet normal 0.994522 -0.104528 0
    outer loop
      vertex -34.7242 7.38087 0
      vertex -34.7242 7.38087 3
      vertex -35.5 0 3
    endloop
  endfacet
  facet normal 0.994522 -0.104528 0
    outer loop
      vertex -35.5 0 0
      vertex -34.7242 7.38087 0
      vertex -35.5 0 3
    endloop
  endfacet
  facet normal 0.994522 0.104528 0
    outer loop
      vertex -35.5 0 3
      vertex -34.7242 -7.38087 3
      vertex -34.7242 -7.38087 0
    endloop
  endfacet
  facet normal 0.994522 0.104528 0
    outer loop
      vertex -35.5 0 0
      vertex -35.5 0 3
      vertex -34.7242 -7.38087 0
    endloop
  endfacet
  facet normal 0.951057 0.309017 0
    outer loop
      vertex -32.4309 -14.4392 10
      vertex -32.9852 -12.7331 3
      vertex -32.9852 -12.7331 10
    endloop
  endfacet
  facet normal 0.951057 0.309017 0
    outer loop
      vertex -32.4309 -14.4392 0
      vertex -32.9852 -12.7331 3
      vertex -32.4309 -14.4392 10
    endloop
  endfacet
  facet normal 0.951057 0.309017 0
    outer loop
      vertex -34.7242 -7.38087 3
      vertex -32.9852 -12.7331 3
      vertex -32.4309 -14.4392 0
    endloop
  endfacet
  facet normal 0.951057 0.309017 0
    outer loop
      vertex -34.7242 -7.38087 0
      vertex -34.7242 -7.38087 3
      vertex -32.4309 -14.4392 0
    endloop
  endfacet
  facet normal -0.430511 0.902585 0
    outer loop
      vertex -53.623 -22.5768 3
      vertex -53.623 -22.5768 10
      vertex -32.9852 -12.7331 3
    endloop
  endfacet
  facet normal -0.430511 0.902585 0
    outer loop
      vertex -32.9852 -12.7331 3
      vertex -53.623 -22.5768 10
      vertex -32.9852 -12.7331 10
    endloop
  endfacet
  facet normal 0.309017 0.951057 0
    outer loop
      vertex -68.4761 -17.7508 3
      vertex -68.4761 -17.7508 10
      vertex -53.623 -22.5768 3
    endloop
  endfacet
  facet normal 0.309017 0.951057 0
    outer loop
      vertex -53.623 -22.5768 3
      vertex -68.4761 -17.7508 10
      vertex -53.623 -22.5768 10
    endloop
  endfacet
  facet normal -0.951057 0.309017 0
    outer loop
      vertex -69.3901 -20.5638 3
      vertex -69.3901 -20.5638 10
      vertex -68.4761 -17.7508 3
    endloop
  endfacet
  facet normal -0.951057 0.309017 0
    outer loop
      vertex -68.4761 -17.7508 3
      vertex -69.3901 -20.5638 10
      vertex -68.4761 -17.7508 10
    endloop
  endfacet
  facet normal 0.951057 -0.309017 0
    outer loop
      vertex -50.3689 -26.7441 10
      vertex -50.3689 -26.7441 0
      vertex -49.4549 -23.9311 0
    endloop
  endfacet
  facet normal 0.951057 -0.309017 0
    outer loop
      vertex -49.4549 -23.9311 10
      vertex -50.3689 -26.7441 10
      vertex -49.4549 -23.9311 0
    endloop
  endfacet
  facet normal 0.309017 0.951057 0
    outer loop
      vertex -49.4781 -23.9236 0
      vertex -49.4781 -23.9236 10
      vertex -49.4549 -23.9311 0
    endloop
  endfacet
  facet normal 0.309017 0.951057 0
    outer loop
      vertex -49.4549 -23.9311 0
      vertex -49.4781 -23.9236 10
      vertex -49.4549 -23.9311 10
    endloop
  endfacet
  facet normal 0.430511 -0.902585 0
    outer loop
      vertex -49.4781 -23.9236 10
      vertex -49.4781 -23.9236 0
      vertex -31.8182 -15.5003 0
    endloop
  endfacet
  facet normal 0.430511 -0.902585 0
    outer loop
      vertex -31.8182 -15.5003 10
      vertex -49.4781 -23.9236 10
      vertex -31.8182 -15.5003 0
    endloop
  endfacet
  facet normal 0.866025 0.5 0
    outer loop
      vertex -32.4309 -14.4392 10
      vertex -31.8182 -15.5003 10
      vertex -31.8182 -15.5003 0
    endloop
  endfacet
  facet normal 0.866025 0.5 0
    outer loop
      vertex -32.4309 -14.4392 0
      vertex -32.4309 -14.4392 10
      vertex -31.8182 -15.5003 0
    endloop
  endfacet
  facet normal 0.309017 0.951057 0
    outer loop
      vertex -56.1123 21.232 0
      vertex -56.1123 21.232 10
      vertex -32.6959 13.6235 0
    endloop
  endfacet
  facet normal 0.309017 0.951057 0
    outer loop
      vertex -32.6959 13.6235 0
      vertex -56.1123 21.232 10
      vertex -32.6959 13.6235 10
    endloop
  endfacet
  facet normal 0 0 1
    outer loop
      vertex -68.4761 -17.7508 10
      vertex -69.3901 -20.5638 10
      vertex -50.3689 -26.7441 10
    endloop
  endfacet
  facet normal 0 0 1
    outer loop
      vertex -53.623 -22.5768 10
      vertex -68.4761 -17.7508 10
      vertex -50.3689 -26.7441 10
    endloop
  endfacet
  facet normal 0 0 1
    outer loop
      vertex -49.4781 -23.9236 10
      vertex -53.623 -22.5768 10
      vertex -50.3689 -26.7441 10
    endloop
  endfacet
  facet normal 0 0 1
    outer loop
      vertex -49.4549 -23.9311 10
      vertex -49.4781 -23.9236 10
      vertex -50.3689 -26.7441 10
    endloop
  endfacet
  facet normal 0 0 1
    outer loop
      vertex -31.8182 -15.5003 10
      vertex -53.623 -22.5768 10
      vertex -49.4781 -23.9236 10
    endloop
  endfacet
  facet normal 0 0 1
    outer loop
      vertex -32.4309 -14.4392 10
      vertex -53.623 -22.5768 10
      vertex -31.8182 -15.5003 10
    endloop
  endfacet
  facet normal 0 0 1
    outer loop
      vertex -32.9852 -12.7331 10
      vertex -53.623 -22.5768 10
      vertex -32.4309 -14.4392 10
    endloop
  endfacet
  facet normal 0 0 1
    outer loop
      vertex -56.1123 21.232 10
      vertex -57.0394 18.3788 10
      vertex -33.6229 10.7704 10
    endloop
  endfacet
  facet normal 0 0 1
    outer loop
      vertex -32.6959 13.6235 10
      vertex -56.1123 21.232 10
      vertex -33.6229 10.7704 10
    endloop
  endfacet
endsolid OpenSCAD_Model
