solid OpenSCAD_Model
  facet normal -1 0 0
    outer loop
      vertex 0 0 0
      vertex 0 0 3
      vertex 0 5 0
    endloop
  endfacet
  facet normal -1 0 0
    outer loop
      vertex 0 5 0
      vertex 0 0 3
      vertex 0 5 3
    endloop
  endfacet
  facet normal 0 -1 0
    outer loop
      vertex 0 0 3
      vertex 0 0 0
      vertex 85 0 0
    endloop
  endfacet
  facet normal 0 -1 0
    outer loop
      vertex 85 0 3
      vertex 0 0 3
      vertex 85 0 0
    endloop
  endfacet
  facet normal 0 0 -1
    outer loop
      vertex 0 0 0
      vertex 0 5 0
      vertex 85 0 0
    endloop
  endfacet
  facet normal 0 0 -1
    outer loop
      vertex 85 0 0
      vertex 0 5 0
      vertex 85 5 0
    endloop
  endfacet
  facet normal 0 0 -1
    outer loop
      vertex 85 0 0
      vertex 85 5 0
      vertex 86.7678 4.26777 0
    endloop
  endfacet
  facet normal 0 0 -1
    outer loop
      vertex 85 0 0
      vertex 86.7678 4.26777 0
      vertex 87.5 2.5 0
    endloop
  endfacet
  facet normal 0 0 -1
    outer loop
      vertex 85 0 0
      vertex 87.5 2.5 0
      vertex 86.7678 0.732233 0
    endloop
  endfacet
  facet normal 0 1 0
    outer loop
      vertex 0 5 0
      vertex 0 5 3
      vertex 85 5 0
    endloop
  endfacet
  facet normal 0 1 0
    outer loop
      vertex 85 5 0
      vertex 0 5 3
      vertex 85 5 3
    endloop
  endfacet
  facet normal 0 0 1
    outer loop
      vertex 0 5 3
      vertex 0 0 3
      vertex 85 0 3
    endloop
  endfacet
  facet normal 0 0 1
    outer loop
      vertex 87.5 2.5 3
      vertex 0 5 3
      vertex 86.7678 0.732233 3
    endloop
  endfacet
  facet normal 0 0 1
    outer loop
      vertex 86.7678 0.732233 3
      vertex 0 5 3
      vertex 85 0 3
    endloop
  endfacet
  facet normal 0 0 1
    outer loop
      vertex 86.7678 4.26777 3
      vertex 0 5 3
      vertex 87.5 2.5 3
    endloop
  endfacet
  facet normal 0 0 1
    outer loop
      vertex 85 5 3
      vertex 0 5 3
      vertex 86.7678 4.26777 3
    endloop
  endfacet
  facet normal 0.382683 -0.92388 0
    outer loop
      vertex 85 0 3
      vertex 85 0 0
      vertex 86.7678 0.732233 0
    endloop
  endfacet
  facet normal 0.382683 -0.92388 0
    outer loop
      vertex 86.7678 0.732233 3
      vertex 85 0 3
      vertex 86.7678 0.732233 0
    endloop
  endfacet
  facet normal 0.92388 -0.382683 0
    outer loop
      vertex 86.7678 0.732233 3
      vertex 86.7678 0.732233 0
      vertex 87.5 2.5 0
    endloop
  endfacet
  facet normal 0.92388 -0.382683 0
    outer loop
      vertex 87.5 2.5 3
      vertex 86.7678 0.732233 3
      vertex 87.5 2.5 0
    endloop
  endfacet
  facet normal 0.92388 0.382683 0
    outer loop
      vertex 87.5 2.5 0
      vertex 86.7678 4.26777 0
      vertex 86.7678 4.26777 3
    endloop
  endfacet
  facet normal 0.92388 0.382683 0
    outer loop
      vertex 87.5 2.5 3
      vertex 87.5 2.5 0
      vertex 86.7678 4.26777 3
    endloop
  endfacet
  facet normal 0.382683 0.92388 0
    outer loop
      vertex 85 5 0
      vertex 85 5 3
      vertex 86.7678 4.26777 0
    endloop
  endfacet
  facet normal 0.382683 0.92388 0
    outer loop
      vertex 86.7678 4.26777 0
      vertex 85 5 3
      vertex 86.7678 4.26777 3
    endloop
  endfacet
endsolid OpenSCAD_Model
